<svg width="244" height="136" viewBox="0 0 244 136" fill="none" xmlns="http://www.w3.org/2000/svg">
<path d="M29.5122 90.683V91.8538H28.3415V90.683H29.5122ZM29.5122 89.5123V90.683H28.3415V89.5123H29.5122ZM29.5122 88.3416V89.5123H28.3415V88.3416H29.5122ZM29.5122 87.1708V88.3416H28.3415V87.1708H29.5122ZM29.5122 86.0001V87.1708H28.3415V86.0001H29.5122ZM29.5122 84.8294V86.0001H28.3415V84.8294H29.5122ZM29.5122 83.6586V84.8294H28.3415V83.6586H29.5122ZM29.5122 82.4879V83.6586H28.3415V82.4879H29.5122ZM29.5122 81.3172V82.4879H28.3415V81.3172H29.5122ZM29.5122 80.1464V81.3172H28.3415V80.1464H29.5122ZM29.5122 78.9757V80.1464H28.3415V78.9757H29.5122ZM29.5122 77.805V78.9757H28.3415V77.805H29.5122ZM29.5122 76.6342V77.805H28.3415V76.6342H29.5122ZM29.5122 75.4635V76.6342H28.3415V75.4635H29.5122ZM29.5122 74.2928V75.4635H28.3415V74.2928H29.5122ZM30.6829 74.2928V75.4635H29.5122V74.2928H30.6829ZM30.6829 75.4635V76.6342H29.5122V75.4635H30.6829ZM30.6829 76.6342V77.805H29.5122V76.6342H30.6829ZM30.6829 77.805V78.9757H29.5122V77.805H30.6829ZM30.6829 78.9757V80.1464H29.5122V78.9757H30.6829ZM30.6829 80.1464V81.3172H29.5122V80.1464H30.6829ZM30.6829 81.3172V82.4879H29.5122V81.3172H30.6829ZM31.8537 82.4879V83.6586H30.6829V82.4879H31.8537ZM31.8537 83.6586V84.8294H30.6829V83.6586H31.8537ZM31.8537 84.8294V86.0001H30.6829V84.8294H31.8537ZM31.8537 86.0001V87.1708H30.6829V86.0001H31.8537ZM31.8537 87.1708V88.3416H30.6829V87.1708H31.8537ZM31.8537 88.3416V89.5123H30.6829V88.3416H31.8537ZM31.8537 89.5123V90.683H30.6829V89.5123H31.8537ZM31.8537 90.683V91.8538H30.6829V90.683H31.8537ZM33.0244 90.683V91.8538H31.8537V90.683H33.0244ZM34.1951 90.683V91.8538H33.0244V90.683H34.1951ZM34.1951 89.5123V90.683H33.0244V89.5123H34.1951ZM34.1951 88.3416V89.5123H33.0244V88.3416H34.1951ZM34.1951 87.1708V88.3416H33.0244V87.1708H34.1951ZM34.1951 86.0001V87.1708H33.0244V86.0001H34.1951ZM34.1951 84.8294V86.0001H33.0244V84.8294H34.1951ZM34.1951 83.6586V84.8294H33.0244V83.6586H34.1951ZM34.1951 82.4879V83.6586H33.0244V82.4879H34.1951ZM33.0244 82.4879V83.6586H31.8537V82.4879H33.0244ZM33.0244 81.3172V82.4879H31.8537V81.3172H33.0244ZM33.0244 83.6586V84.8294H31.8537V83.6586H33.0244ZM33.0244 84.8294V86.0001H31.8537V84.8294H33.0244ZM33.0244 86.0001V87.1708H31.8537V86.0001H33.0244ZM33.0244 87.1708V88.3416H31.8537V87.1708H33.0244ZM33.0244 88.3416V89.5123H31.8537V88.3416H33.0244ZM33.0244 89.5123V90.683H31.8537V89.5123H33.0244ZM30.6829 90.683V91.8538H29.5122V90.683H30.6829ZM30.6829 89.5123V90.683H29.5122V89.5123H30.6829ZM30.6829 88.3416V89.5123H29.5122V88.3416H30.6829ZM30.6829 87.1708V88.3416H29.5122V87.1708H30.6829ZM30.6829 86.0001V87.1708H29.5122V86.0001H30.6829ZM30.6829 84.8294V86.0001H29.5122V84.8294H30.6829ZM30.6829 83.6586V84.8294H29.5122V83.6586H30.6829ZM30.6829 82.4879V83.6586H29.5122V82.4879H30.6829ZM29.5122 62.5855V63.7562H28.3415V62.5855H29.5122ZM29.5122 63.7562V64.9269H28.3415V63.7562H29.5122ZM29.5122 64.9269V66.0977H28.3415V64.9269H29.5122ZM29.5122 66.0977V67.2684H28.3415V66.0977H29.5122ZM29.5122 67.2684V68.4391H28.3415V67.2684H29.5122ZM29.5122 68.4391V69.6099H28.3415V68.4391H29.5122ZM29.5122 69.6099V70.7806H28.3415V69.6099H29.5122ZM29.5122 70.7806V71.9513H28.3415V70.7806H29.5122ZM29.5122 71.9513V73.1221H28.3415V71.9513H29.5122ZM29.5122 73.1221V74.2928H28.3415V73.1221H29.5122ZM33.0244 62.5855V63.7562H31.8537V62.5855H33.0244ZM33.0244 63.7562V64.9269H31.8537V63.7562H33.0244ZM33.0244 64.9269V66.0977H31.8537V64.9269H33.0244ZM33.0244 66.0977V67.2684H31.8537V66.0977H33.0244ZM33.0244 67.2684V68.4391H31.8537V67.2684H33.0244ZM33.0244 68.4391V69.6099H31.8537V68.4391H33.0244ZM33.0244 70.7806V71.9513H31.8537V70.7806H33.0244ZM33.0244 71.9513V73.1221H31.8537V71.9513H33.0244ZM33.0244 73.1221V74.2928H31.8537V73.1221H33.0244ZM33.0244 74.2928V75.4635H31.8537V74.2928H33.0244ZM33.0244 75.4635V76.6342H31.8537V75.4635H33.0244ZM33.0244 76.6342V77.805H31.8537V76.6342H33.0244ZM33.0244 77.805V78.9757H31.8537V77.805H33.0244ZM34.1951 78.9757V80.1464H33.0244V78.9757H34.1951ZM34.1951 80.1464V81.3172H33.0244V80.1464H34.1951ZM34.1951 81.3172V82.4879H33.0244V81.3172H34.1951ZM34.1951 77.805V78.9757H33.0244V77.805H34.1951ZM34.1951 76.6342V77.805H33.0244V76.6342H34.1951ZM34.1951 75.4635V76.6342H33.0244V75.4635H34.1951ZM34.1951 74.2928V75.4635H33.0244V74.2928H34.1951ZM34.1951 73.1221V74.2928H33.0244V73.1221H34.1951ZM34.1951 71.9513V73.1221H33.0244V71.9513H34.1951ZM34.1951 70.7806V71.9513H33.0244V70.7806H34.1951ZM34.1951 69.6099V70.7806H33.0244V69.6099H34.1951ZM34.1951 68.4391V69.6099H33.0244V68.4391H34.1951ZM34.1951 67.2684V68.4391H33.0244V67.2684H34.1951ZM33.0244 69.6099V70.7806H31.8537V69.6099H33.0244ZM34.1951 66.0977V67.2684H33.0244V66.0977H34.1951ZM34.1951 64.9269V66.0977H33.0244V64.9269H34.1951ZM34.1951 63.7562V64.9269H33.0244V63.7562H34.1951ZM34.1951 62.5855V63.7562H33.0244V62.5855H34.1951ZM31.8537 62.5855V63.7562H30.6829V62.5855H31.8537ZM30.6829 62.5855V63.7562H29.5122V62.5855H30.6829ZM30.6829 63.7562V64.9269H29.5122V63.7562H30.6829ZM31.8537 63.7562V64.9269H30.6829V63.7562H31.8537ZM31.8537 64.9269V66.0977H30.6829V64.9269H31.8537ZM31.8537 66.0977V67.2684H30.6829V66.0977H31.8537ZM31.8537 67.2684V68.4391H30.6829V67.2684H31.8537ZM31.8537 68.4391V69.6099H30.6829V68.4391H31.8537ZM31.8537 69.6099V70.7806H30.6829V69.6099H31.8537ZM31.8537 70.7806V71.9513H30.6829V70.7806H31.8537ZM30.6829 71.9513V73.1221H29.5122V71.9513H30.6829ZM30.6829 73.1221V74.2928H29.5122V73.1221H30.6829ZM30.6829 70.7806V71.9513H29.5122V70.7806H30.6829ZM30.6829 69.6099V70.7806H29.5122V69.6099H30.6829ZM30.6829 68.4391V69.6099H29.5122V68.4391H30.6829ZM30.6829 67.2684V68.4391H29.5122V67.2684H30.6829ZM30.6829 66.0977V67.2684H29.5122V66.0977H30.6829ZM30.6829 64.9269V66.0977H29.5122V64.9269H30.6829ZM31.8537 71.9513V73.1221H30.6829V71.9513H31.8537ZM31.8537 73.1221V74.2928H30.6829V73.1221H31.8537ZM31.8537 74.2928V75.4635H30.6829V74.2928H31.8537ZM31.8537 75.4635V76.6342H30.6829V75.4635H31.8537ZM31.8537 76.6342V77.805H30.6829V76.6342H31.8537ZM31.8537 77.805V78.9757H30.6829V77.805H31.8537ZM31.8537 78.9757V80.1464H30.6829V78.9757H31.8537ZM31.8537 80.1464V81.3172H30.6829V80.1464H31.8537ZM31.8537 81.3172V82.4879H30.6829V81.3172H31.8537ZM33.0244 80.1464V81.3172H31.8537V80.1464H33.0244ZM33.0244 78.9757V80.1464H31.8537V78.9757H33.0244ZM35.3659 76.6342V77.805H34.1951V76.6342H35.3659ZM36.5366 76.6342V77.805H35.3659V76.6342H36.5366ZM36.5366 77.805V78.9757H35.3659V77.805H36.5366ZM35.3659 77.805V78.9757H34.1951V77.805H35.3659ZM35.3659 74.2928V75.4635H34.1951V74.2928H35.3659ZM36.5366 74.2928V75.4635H35.3659V74.2928H36.5366ZM35.3659 78.9757V80.1464H34.1951V78.9757H35.3659ZM36.5366 78.9757V80.1464H35.3659V78.9757H36.5366ZM36.5366 75.4635V76.6342H35.3659V75.4635H36.5366ZM35.3659 75.4635V76.6342H34.1951V75.4635H35.3659ZM35.3659 62.5855V63.7562H34.1951V62.5855H35.3659ZM36.5366 62.5855V63.7562H35.3659V62.5855H36.5366ZM36.5366 63.7562V64.9269H35.3659V63.7562H36.5366ZM35.3659 63.7562V64.9269H34.1951V63.7562H35.3659ZM35.3659 64.9269V66.0977H34.1951V64.9269H35.3659ZM36.5366 64.9269V66.0977H35.3659V64.9269H36.5366ZM36.5366 66.0977V67.2684H35.3659V66.0977H36.5366ZM35.3659 66.0977V67.2684H34.1951V66.0977H35.3659ZM35.3659 67.2684V68.4391H34.1951V67.2684H35.3659ZM36.5366 67.2684V68.4391H35.3659V67.2684H36.5366ZM35.3659 90.683V91.8538H34.1951V90.683H35.3659ZM36.5366 90.683V91.8538H35.3659V90.683H36.5366ZM36.5366 89.5123V90.683H35.3659V89.5123H36.5366ZM36.5366 88.3416V89.5123H35.3659V88.3416H36.5366ZM36.5366 87.1708V88.3416H35.3659V87.1708H36.5366ZM36.5366 86.0001V87.1708H35.3659V86.0001H36.5366ZM35.3659 86.0001V87.1708H34.1951V86.0001H35.3659ZM35.3659 87.1708V88.3416H34.1951V87.1708H35.3659ZM35.3659 88.3416V89.5123H34.1951V88.3416H35.3659ZM35.3659 89.5123V90.683H34.1951V89.5123H35.3659ZM37.7073 74.2928V75.4635H36.5366V74.2928H37.7073ZM38.878 74.2928V75.4635H37.7073V74.2928H38.878ZM40.0488 74.2928V75.4635H38.878V74.2928H40.0488ZM40.0488 67.2684V68.4391H38.878V67.2684H40.0488ZM38.878 67.2684V68.4391H37.7073V67.2684H38.878ZM37.7073 67.2684V68.4391H36.5366V67.2684H37.7073ZM37.7073 62.5855V63.7562H36.5366V62.5855H37.7073ZM38.878 62.5855V63.7562H37.7073V62.5855H38.878ZM40.0488 62.5855V63.7562H38.878V62.5855H40.0488ZM40.0488 66.0977V67.2684H38.878V66.0977H40.0488ZM40.0488 64.9269V66.0977H38.878V64.9269H40.0488ZM38.878 64.9269V66.0977H37.7073V64.9269H38.878ZM37.7073 64.9269V66.0977H36.5366V64.9269H37.7073ZM37.7073 63.7562V64.9269H36.5366V63.7562H37.7073ZM38.878 63.7562V64.9269H37.7073V63.7562H38.878ZM40.0488 63.7562V64.9269H38.878V63.7562H40.0488ZM37.7073 66.0977V67.2684H36.5366V66.0977H37.7073ZM38.878 66.0977V67.2684H37.7073V66.0977H38.878ZM40.0488 76.6342V77.805H38.878V76.6342H40.0488ZM38.878 76.6342V77.805H37.7073V76.6342H38.878ZM37.7073 76.6342V77.805H36.5366V76.6342H37.7073ZM37.7073 75.4635V76.6342H36.5366V75.4635H37.7073ZM38.878 75.4635V76.6342H37.7073V75.4635H38.878ZM40.0488 75.4635V76.6342H38.878V75.4635H40.0488ZM37.7073 77.805V78.9757H36.5366V77.805H37.7073ZM38.878 77.805V78.9757H37.7073V77.805H38.878ZM40.0488 77.805V78.9757H38.878V77.805H40.0488ZM40.0488 78.9757V80.1464H38.878V78.9757H40.0488ZM38.878 78.9757V80.1464H37.7073V78.9757H38.878ZM37.7073 78.9757V80.1464H36.5366V78.9757H37.7073ZM37.7073 86.0001V87.1708H36.5366V86.0001H37.7073ZM38.878 86.0001V87.1708H37.7073V86.0001H38.878ZM40.0488 86.0001V87.1708H38.878V86.0001H40.0488ZM40.0488 89.5123V90.683H38.878V89.5123H40.0488ZM38.878 90.683V91.8538H37.7073V90.683H38.878ZM37.7073 90.683V91.8538H36.5366V90.683H37.7073ZM40.0488 90.683V91.8538H38.878V90.683H40.0488ZM38.878 89.5123V90.683H37.7073V89.5123H38.878ZM37.7073 89.5123V90.683H36.5366V89.5123H37.7073ZM37.7073 88.3416V89.5123H36.5366V88.3416H37.7073ZM38.878 88.3416V89.5123H37.7073V88.3416H38.878ZM40.0488 88.3416V89.5123H38.878V88.3416H40.0488ZM40.0488 87.1708V88.3416H38.878V87.1708H40.0488ZM38.878 87.1708V88.3416H37.7073V87.1708H38.878ZM37.7073 87.1708V88.3416H36.5366V87.1708H37.7073ZM47.0732 67.2684V68.4391H45.9024V67.2684H47.0732ZM47.0732 86.0001V87.1708H45.9024V86.0001H47.0732ZM41.2195 62.5855V63.7562H40.0488V62.5855H41.2195ZM42.3902 62.5855V63.7562H41.2195V62.5855H42.3902ZM43.561 62.5855V63.7562H42.3902V62.5855H43.561ZM44.7317 62.5855V63.7562H43.561V62.5855H44.7317ZM45.9024 62.5855V63.7562H44.7317V62.5855H45.9024ZM45.9024 63.7562V64.9269H44.7317V63.7562H45.9024ZM47.0732 63.7562V64.9269H45.9024V63.7562H47.0732ZM47.0732 64.9269V66.0977H45.9024V64.9269H47.0732ZM47.0732 62.5855V63.7562H45.9024V62.5855H47.0732ZM47.0732 66.0977V67.2684H45.9024V66.0977H47.0732ZM45.9024 66.0977V67.2684H44.7317V66.0977H45.9024ZM44.7317 66.0977V67.2684H43.561V66.0977H44.7317ZM43.561 66.0977V67.2684H42.3902V66.0977H43.561ZM42.3902 66.0977V67.2684H41.2195V66.0977H42.3902ZM41.2195 66.0977V67.2684H40.0488V66.0977H41.2195ZM41.2195 64.9269V66.0977H40.0488V64.9269H41.2195ZM41.2195 63.7562V64.9269H40.0488V63.7562H41.2195ZM42.3902 63.7562V64.9269H41.2195V63.7562H42.3902ZM43.561 63.7562V64.9269H42.3902V63.7562H43.561ZM44.7317 63.7562V64.9269H43.561V63.7562H44.7317ZM44.7317 64.9269V66.0977H43.561V64.9269H44.7317ZM45.9024 64.9269V66.0977H44.7317V64.9269H45.9024ZM43.561 64.9269V66.0977H42.3902V64.9269H43.561ZM42.3902 64.9269V66.0977H41.2195V64.9269H42.3902ZM41.2195 67.2684V68.4391H40.0488V67.2684H41.2195ZM42.3902 67.2684V68.4391H41.2195V67.2684H42.3902ZM43.561 67.2684V68.4391H42.3902V67.2684H43.561ZM44.7317 67.2684V68.4391H43.561V67.2684H44.7317ZM45.9024 67.2684V68.4391H44.7317V67.2684H45.9024ZM47.0732 87.1708V88.3416H45.9024V87.1708H47.0732ZM45.9024 87.1708V88.3416H44.7317V87.1708H45.9024ZM45.9024 88.3416V89.5123H44.7317V88.3416H45.9024ZM45.9024 89.5123V90.683H44.7317V89.5123H45.9024ZM45.9024 90.683V91.8538H44.7317V90.683H45.9024ZM47.0732 89.5123V90.683H45.9024V89.5123H47.0732ZM47.0732 88.3416V89.5123H45.9024V88.3416H47.0732ZM47.0732 90.683V91.8538H45.9024V90.683H47.0732ZM41.2195 90.683V91.8538H40.0488V90.683H41.2195ZM42.3902 90.683V91.8538H41.2195V90.683H42.3902ZM43.561 90.683V91.8538H42.3902V90.683H43.561ZM43.561 89.5123V90.683H42.3902V89.5123H43.561ZM44.7317 90.683V91.8538H43.561V90.683H44.7317ZM44.7317 89.5123V90.683H43.561V89.5123H44.7317ZM44.7317 88.3416V89.5123H43.561V88.3416H44.7317ZM44.7317 87.1708V88.3416H43.561V87.1708H44.7317ZM44.7317 86.0001V87.1708H43.561V86.0001H44.7317ZM45.9024 86.0001V87.1708H44.7317V86.0001H45.9024ZM41.2195 86.0001V87.1708H40.0488V86.0001H41.2195ZM42.3902 86.0001V87.1708H41.2195V86.0001H42.3902ZM43.561 86.0001V87.1708H42.3902V86.0001H43.561ZM43.561 87.1708V88.3416H42.3902V87.1708H43.561ZM43.561 88.3416V89.5123H42.3902V88.3416H43.561ZM42.3902 88.3416V89.5123H41.2195V88.3416H42.3902ZM42.3902 87.1708V88.3416H41.2195V87.1708H42.3902ZM41.2195 87.1708V88.3416H40.0488V87.1708H41.2195ZM41.2195 88.3416V89.5123H40.0488V88.3416H41.2195ZM41.2195 89.5123V90.683H40.0488V89.5123H41.2195ZM42.3902 89.5123V90.683H41.2195V89.5123H42.3902ZM41.2195 74.2928V75.4635H40.0488V74.2928H41.2195ZM41.2195 75.4635V76.6342H40.0488V75.4635H41.2195ZM41.2195 76.6342V77.805H40.0488V76.6342H41.2195ZM41.2195 77.805V78.9757H40.0488V77.805H41.2195ZM42.3902 77.805V78.9757H41.2195V77.805H42.3902ZM42.3902 78.9757V80.1464H41.2195V78.9757H42.3902ZM41.2195 78.9757V80.1464H40.0488V78.9757H41.2195ZM42.3902 74.2928V75.4635H41.2195V74.2928H42.3902ZM42.3902 75.4635V76.6342H41.2195V75.4635H42.3902ZM42.3902 76.6342V77.805H41.2195V76.6342H42.3902ZM43.561 76.6342V77.805H42.3902V76.6342H43.561ZM44.7317 76.6342V77.805H43.561V76.6342H44.7317ZM44.7317 75.4635V76.6342H43.561V75.4635H44.7317ZM44.7317 74.2928V75.4635H43.561V74.2928H44.7317ZM43.561 74.2928V75.4635H42.3902V74.2928H43.561ZM43.561 75.4635V76.6342H42.3902V75.4635H43.561ZM43.561 77.805V78.9757H42.3902V77.805H43.561ZM43.561 78.9757V80.1464H42.3902V78.9757H43.561ZM44.7317 78.9757V80.1464H43.561V78.9757H44.7317ZM44.7317 77.805V78.9757H43.561V77.805H44.7317ZM68.1692 74.2928V75.4635H66.9985V74.2928H68.1692ZM66.9985 74.2928V75.4635H65.8277V74.2928H66.9985ZM65.8277 74.2928V75.4635H64.657V74.2928H65.8277ZM64.657 74.2928V75.4635H63.4863V74.2928H64.657ZM63.4863 73.1221V74.2928H62.3155V73.1221H63.4863ZM64.657 73.1221V74.2928H63.4863V73.1221H64.657ZM65.8277 73.1221V74.2928H64.657V73.1221H65.8277ZM66.9985 73.1221V74.2928H65.8277V73.1221H66.9985ZM68.1692 73.1221V74.2928H66.9985V73.1221H68.1692ZM68.1692 71.9513V73.1221H66.9985V71.9513H68.1692ZM66.9985 71.9513V73.1221H65.8277V71.9513H66.9985ZM65.8277 71.9513V73.1221H64.657V71.9513H65.8277ZM64.657 71.9513V73.1221H63.4863V71.9513H64.657ZM63.4863 71.9513V73.1221H62.3155V71.9513H63.4863ZM65.8277 70.7806V71.9513H64.657V70.7806H65.8277ZM66.9985 70.7806V71.9513H65.8277V70.7806H66.9985ZM64.657 70.7806V71.9513H63.4863V70.7806H64.657ZM64.657 69.6099V70.7806H63.4863V69.6099H64.657ZM63.4863 69.6099V70.7806H62.3155V69.6099H63.4863ZM63.4863 70.7806V71.9513H62.3155V70.7806H63.4863ZM62.3155 70.7806V71.9513H61.1448V70.7806H62.3155ZM62.3155 69.6099V70.7806H61.1448V69.6099H62.3155ZM62.3155 71.9513V73.1221H61.1448V71.9513H62.3155ZM61.1448 71.9513V73.1221H59.9741V71.9513H61.1448ZM61.1448 73.1221V74.2928H59.9741V73.1221H61.1448ZM62.3155 73.1221V74.2928H61.1448V73.1221H62.3155ZM59.9741 73.1221V74.2928H58.8034V73.1221H59.9741ZM59.9741 71.9513V73.1221H58.8034V71.9513H59.9741ZM59.9741 70.7806V71.9513H58.8034V70.7806H59.9741ZM59.9741 69.6099V70.7806H58.8034V69.6099H59.9741ZM61.1448 69.6099V70.7806H59.9741V69.6099H61.1448ZM61.1448 70.7806V71.9513H59.9741V70.7806H61.1448ZM58.8034 69.6099V70.7806H57.6326V69.6099H58.8034ZM57.6326 69.6099V70.7806H56.4619V69.6099H57.6326ZM56.4619 69.6099V70.7806H55.2912V69.6099H56.4619ZM56.4619 70.7806V71.9513H55.2912V70.7806H56.4619ZM56.4619 71.9513V73.1221H55.2912V71.9513H56.4619ZM56.4619 73.1221V74.2928H55.2912V73.1221H56.4619ZM57.6326 73.1221V74.2928H56.4619V73.1221H57.6326ZM58.8034 73.1221V74.2928H57.6326V73.1221H58.8034ZM58.8034 71.9513V73.1221H57.6326V71.9513H58.8034ZM58.8034 70.7806V71.9513H57.6326V70.7806H58.8034ZM57.6326 70.7806V71.9513H56.4619V70.7806H57.6326ZM57.6326 71.9513V73.1221H56.4619V71.9513H57.6326ZM55.2912 71.9513V73.1221H54.1204V71.9513H55.2912ZM55.2912 70.7806V71.9513H54.1204V70.7806H55.2912ZM54.1204 70.7806V71.9513H52.9497V70.7806H54.1204ZM54.1204 71.9513V73.1221H52.9497V71.9513H54.1204ZM52.9497 71.9513V73.1221H51.779V71.9513H52.9497ZM52.9497 73.1221V74.2928H51.779V73.1221H52.9497ZM52.9497 74.2928V75.4635H51.779V74.2928H52.9497ZM54.1204 74.2928V75.4635H52.9497V74.2928H54.1204ZM54.1204 73.1221V74.2928H52.9497V73.1221H54.1204ZM55.2912 73.1221V74.2928H54.1204V73.1221H55.2912ZM55.2912 74.2928V75.4635H54.1204V74.2928H55.2912ZM56.4619 74.2928V75.4635H55.2912V74.2928H56.4619ZM57.6326 74.2928V75.4635H56.4619V74.2928H57.6326ZM51.779 74.2928V75.4635H50.6082V74.2928H51.779ZM51.779 75.4635V76.6342H50.6082V75.4635H51.779ZM51.779 76.6342V77.805H50.6082V76.6342H51.779ZM51.779 84.8294V86.0001H50.6082V84.8294H51.779ZM52.9497 84.8294V86.0001H51.779V84.8294H52.9497ZM52.9497 86.0001V87.1708H51.779V86.0001H52.9497ZM51.779 86.0001V87.1708H50.6082V86.0001H51.779ZM54.1204 86.0001V87.1708H52.9497V86.0001H54.1204ZM55.2912 86.0001V87.1708H54.1204V86.0001H55.2912ZM56.4619 86.0001V87.1708H55.2912V86.0001H56.4619ZM57.6326 86.0001V87.1708H56.4619V86.0001H57.6326ZM56.4619 84.8294V86.0001H55.2912V84.8294H56.4619ZM56.4619 76.6342V77.805H55.2912V76.6342H56.4619ZM56.4619 75.4635V76.6342H55.2912V75.4635H56.4619ZM55.2912 75.4635V76.6342H54.1204V75.4635H55.2912ZM54.1204 75.4635V76.6342H52.9497V75.4635H54.1204ZM52.9497 75.4635V76.6342H51.779V75.4635H52.9497ZM52.9497 76.6342V77.805H51.779V76.6342H52.9497ZM54.1204 84.8294V86.0001H52.9497V84.8294H54.1204ZM55.2912 84.8294V86.0001H54.1204V84.8294H55.2912ZM54.1204 76.6342V77.805H52.9497V76.6342H54.1204ZM55.2912 76.6342V77.805H54.1204V76.6342H55.2912ZM64.657 83.6586V84.8294H63.4863V83.6586H64.657ZM64.657 84.8294V86.0001H63.4863V84.8294H64.657ZM65.8277 84.8294V86.0001H64.657V84.8294H65.8277ZM66.9985 84.8294V86.0001H65.8277V84.8294H66.9985ZM68.1692 84.8294V86.0001H66.9985V84.8294H68.1692ZM69.3399 84.8294V86.0001H68.1692V84.8294H69.3399ZM69.3399 83.6586V84.8294H68.1692V83.6586H69.3399ZM68.1692 83.6586V84.8294H66.9985V83.6586H68.1692ZM66.9985 83.6586V84.8294H65.8277V83.6586H66.9985ZM65.8277 83.6586V84.8294H64.657V83.6586H65.8277ZM69.3399 86.0001V87.1708H68.1692V86.0001H69.3399ZM68.1692 86.0001V87.1708H66.9985V86.0001H68.1692ZM66.9985 86.0001V87.1708H65.8277V86.0001H66.9985ZM65.8277 86.0001V87.1708H64.657V86.0001H65.8277ZM64.657 86.0001V87.1708H63.4863V86.0001H64.657ZM63.4863 86.0001V87.1708H62.3155V86.0001H63.4863ZM63.4863 87.1708V88.3416H62.3155V87.1708H63.4863ZM64.657 87.1708V88.3416H63.4863V87.1708H64.657ZM65.8277 87.1708V88.3416H64.657V87.1708H65.8277ZM66.9985 87.1708V88.3416H65.8277V87.1708H66.9985ZM66.9985 88.3416V89.5123H65.8277V88.3416H66.9985ZM68.1692 88.3416V89.5123H66.9985V88.3416H68.1692ZM68.1692 87.1708V88.3416H66.9985V87.1708H68.1692ZM66.9985 89.5123V90.683H65.8277V89.5123H66.9985ZM65.8277 89.5123V90.683H64.657V89.5123H65.8277ZM65.8277 88.3416V89.5123H64.657V88.3416H65.8277ZM64.657 88.3416V89.5123H63.4863V88.3416H64.657ZM64.657 89.5123V90.683H63.4863V89.5123H64.657ZM64.657 90.683V91.8538H63.4863V90.683H64.657ZM63.4863 90.683V91.8538H62.3155V90.683H63.4863ZM62.3155 90.683V91.8538H61.1448V90.683H62.3155ZM61.1448 90.683V91.8538H59.9741V90.683H61.1448ZM59.9741 90.683V91.8538H58.8034V90.683H59.9741ZM58.8034 90.683V91.8538H57.6326V90.683H58.8034ZM57.6326 90.683V91.8538H56.4619V90.683H57.6326ZM56.4619 90.683V91.8538H55.2912V90.683H56.4619ZM57.6326 89.5123V90.683H56.4619V89.5123H57.6326ZM58.8034 89.5123V90.683H57.6326V89.5123H58.8034ZM59.9741 89.5123V90.683H58.8034V89.5123H59.9741ZM61.1448 89.5123V90.683H59.9741V89.5123H61.1448ZM62.3155 89.5123V90.683H61.1448V89.5123H62.3155ZM63.4863 89.5123V90.683H62.3155V89.5123H63.4863ZM63.4863 88.3416V89.5123H62.3155V88.3416H63.4863ZM62.3155 88.3416V89.5123H61.1448V88.3416H62.3155ZM61.1448 88.3416V89.5123H59.9741V88.3416H61.1448ZM59.9741 88.3416V89.5123H58.8034V88.3416H59.9741ZM58.8034 88.3416V89.5123H57.6326V88.3416H58.8034ZM57.6326 88.3416V89.5123H56.4619V88.3416H57.6326ZM56.4619 89.5123V90.683H55.2912V89.5123H56.4619ZM55.2912 89.5123V90.683H54.1204V89.5123H55.2912ZM54.1204 89.5123V90.683H52.9497V89.5123H54.1204ZM54.1204 88.3416V89.5123H52.9497V88.3416H54.1204ZM52.9497 88.3416V89.5123H51.779V88.3416H52.9497ZM52.9497 87.1708V88.3416H51.779V87.1708H52.9497ZM54.1204 87.1708V88.3416H52.9497V87.1708H54.1204ZM55.2912 87.1708V88.3416H54.1204V87.1708H55.2912ZM56.4619 87.1708V88.3416H55.2912V87.1708H56.4619ZM57.6326 87.1708V88.3416H56.4619V87.1708H57.6326ZM58.8034 87.1708V88.3416H57.6326V87.1708H58.8034ZM59.9741 87.1708V88.3416H58.8034V87.1708H59.9741ZM61.1448 87.1708V88.3416H59.9741V87.1708H61.1448ZM62.3155 87.1708V88.3416H61.1448V87.1708H62.3155ZM56.4619 88.3416V89.5123H55.2912V88.3416H56.4619ZM55.2912 88.3416V89.5123H54.1204V88.3416H55.2912ZM66.9985 81.3172V82.4879H65.8277V81.3172H66.9985ZM69.3399 82.4879V83.6586H68.1692V82.4879H69.3399ZM68.1692 82.4879V83.6586H66.9985V82.4879H68.1692ZM66.9985 82.4879V83.6586H65.8277V82.4879H66.9985ZM65.8277 82.4879V83.6586H64.657V82.4879H65.8277ZM65.8277 81.3172V82.4879H64.657V81.3172H65.8277ZM64.657 81.3172V82.4879H63.4863V81.3172H64.657ZM64.657 82.4879V83.6586H63.4863V82.4879H64.657ZM57.6326 76.6342V77.805H56.4619V76.6342H57.6326ZM52.9497 77.805V78.9757H51.779V77.805H52.9497ZM52.9497 78.9757V80.1464H51.779V78.9757H52.9497ZM54.1204 78.9757V80.1464H52.9497V78.9757H54.1204ZM54.1204 80.1464V81.3172H52.9497V80.1464H54.1204ZM55.2912 80.1464V81.3172H54.1204V80.1464H55.2912ZM56.4619 81.3172V82.4879H55.2912V81.3172H56.4619ZM56.4619 80.1464V81.3172H55.2912V80.1464H56.4619ZM56.4619 78.9757V80.1464H55.2912V78.9757H56.4619ZM56.4619 77.805V78.9757H55.2912V77.805H56.4619ZM55.2912 77.805V78.9757H54.1204V77.805H55.2912ZM55.2912 78.9757V80.1464H54.1204V78.9757H55.2912ZM54.1204 77.805V78.9757H52.9497V77.805H54.1204ZM57.6326 81.3172V82.4879H56.4619V81.3172H57.6326ZM58.8034 81.3172V82.4879H57.6326V81.3172H58.8034ZM59.9741 81.3172V82.4879H58.8034V81.3172H59.9741ZM61.1448 81.3172V82.4879H59.9741V81.3172H61.1448ZM61.1448 80.1464V81.3172H59.9741V80.1464H61.1448ZM59.9741 80.1464V81.3172H58.8034V80.1464H59.9741ZM58.8034 80.1464V81.3172H57.6326V80.1464H58.8034ZM57.6326 80.1464V81.3172H56.4619V80.1464H57.6326ZM57.6326 78.9757V80.1464H56.4619V78.9757H57.6326ZM57.6326 77.805V78.9757H56.4619V77.805H57.6326ZM58.8034 77.805V78.9757H57.6326V77.805H58.8034ZM59.9741 77.805V78.9757H58.8034V77.805H59.9741ZM61.1448 77.805V78.9757H59.9741V77.805H61.1448ZM61.1448 78.9757V80.1464H59.9741V78.9757H61.1448ZM59.9741 78.9757V80.1464H58.8034V78.9757H59.9741ZM58.8034 78.9757V80.1464H57.6326V78.9757H58.8034ZM62.3155 77.805V78.9757H61.1448V77.805H62.3155ZM63.4863 77.805V78.9757H62.3155V77.805H63.4863ZM63.4863 78.9757V80.1464H62.3155V78.9757H63.4863ZM63.4863 80.1464V81.3172H62.3155V80.1464H63.4863ZM63.4863 81.3172V82.4879H62.3155V81.3172H63.4863ZM62.3155 81.3172V82.4879H61.1448V81.3172H62.3155ZM62.3155 80.1464V81.3172H61.1448V80.1464H62.3155ZM62.3155 78.9757V80.1464H61.1448V78.9757H62.3155ZM63.4863 82.4879V83.6586H62.3155V82.4879H63.4863ZM64.657 77.805V78.9757H63.4863V77.805H64.657ZM68.1692 81.3172V82.4879H66.9985V81.3172H68.1692ZM68.1692 80.1464V81.3172H66.9985V80.1464H68.1692ZM66.9985 78.9757V80.1464H65.8277V78.9757H66.9985ZM65.8277 78.9757V80.1464H64.657V78.9757H65.8277ZM64.657 78.9757V80.1464H63.4863V78.9757H64.657ZM64.657 80.1464V81.3172H63.4863V80.1464H64.657ZM65.8277 80.1464V81.3172H64.657V80.1464H65.8277ZM66.9985 80.1464V81.3172H65.8277V80.1464H66.9985ZM63.4863 74.2928V75.4635H62.3155V74.2928H63.4863ZM78.7264 64.9269V66.0977H77.5556V64.9269H78.7264ZM78.7264 66.0977V67.2684H77.5556V66.0977H78.7264ZM78.7264 67.2684V68.4391H77.5556V67.2684H78.7264ZM78.7264 68.4391V69.6099H77.5556V68.4391H78.7264ZM78.7264 69.6099V70.7806H77.5556V69.6099H78.7264ZM78.7264 70.7806V71.9513H77.5556V70.7806H78.7264ZM78.7264 71.9513V73.1221H77.5556V71.9513H78.7264ZM78.7264 73.1221V74.2928H77.5556V73.1221H78.7264ZM79.8971 73.1221V74.2928H78.7264V73.1221H79.8971ZM81.0678 73.1221V74.2928H79.8971V73.1221H81.0678ZM82.2386 73.1221V74.2928H81.0678V73.1221H82.2386ZM83.4093 73.1221V74.2928H82.2386V73.1221H83.4093ZM78.7264 75.4635V76.6342H77.5556V75.4635H78.7264ZM77.5556 75.4635V76.6342H76.3849V75.4635H77.5556ZM77.5556 74.2928V75.4635H76.3849V74.2928H77.5556ZM78.7264 74.2928V75.4635H77.5556V74.2928H78.7264ZM78.7264 76.6342V77.805H77.5556V76.6342H78.7264ZM77.5556 76.6342V77.805H76.3849V76.6342H77.5556ZM76.3849 76.6342V77.805H75.2142V76.6342H76.3849ZM75.2142 76.6342V77.805H74.0434V76.6342H75.2142ZM74.0434 76.6342V77.805H72.8727V76.6342H74.0434ZM71.702 73.1221V74.2928H70.5312V73.1221H71.702ZM72.8727 73.1221V74.2928H71.702V73.1221H72.8727ZM74.0434 73.1221V74.2928H72.8727V73.1221H74.0434ZM75.2142 73.1221V74.2928H74.0434V73.1221H75.2142ZM76.3849 73.1221V74.2928H75.2142V73.1221H76.3849ZM77.5556 73.1221V74.2928H76.3849V73.1221H77.5556ZM76.3849 75.4635V76.6342H75.2142V75.4635H76.3849ZM76.3849 74.2928V75.4635H75.2142V74.2928H76.3849ZM75.2142 74.2928V75.4635H74.0434V74.2928H75.2142ZM74.0434 74.2928V75.4635H72.8727V74.2928H74.0434ZM74.0434 75.4635V76.6342H72.8727V75.4635H74.0434ZM75.2142 75.4635V76.6342H74.0434V75.4635H75.2142ZM77.5556 66.0977V67.2684H76.3849V66.0977H77.5556ZM77.5556 67.2684V68.4391H76.3849V67.2684H77.5556ZM76.3849 67.2684V68.4391H75.2142V67.2684H76.3849ZM76.3849 68.4391V69.6099H75.2142V68.4391H76.3849ZM76.3849 69.6099V70.7806H75.2142V69.6099H76.3849ZM75.2142 68.4391V69.6099H74.0434V68.4391H75.2142ZM75.2142 69.6099V70.7806H74.0434V69.6099H75.2142ZM74.0434 69.6099V70.7806H72.8727V69.6099H74.0434ZM74.0434 70.7806V71.9513H72.8727V70.7806H74.0434ZM74.0434 71.9513V73.1221H72.8727V71.9513H74.0434ZM76.3849 71.9513V73.1221H75.2142V71.9513H76.3849ZM77.5556 71.9513V73.1221H76.3849V71.9513H77.5556ZM77.5556 70.7806V71.9513H76.3849V70.7806H77.5556ZM77.5556 69.6099V70.7806H76.3849V69.6099H77.5556ZM77.5556 68.4391V69.6099H76.3849V68.4391H77.5556ZM76.3849 70.7806V71.9513H75.2142V70.7806H76.3849ZM75.2142 71.9513V73.1221H74.0434V71.9513H75.2142ZM75.2142 70.7806V71.9513H74.0434V70.7806H75.2142ZM83.4093 87.1708V88.3416H82.2386V87.1708H83.4093ZM83.4093 88.3416V89.5123H82.2386V88.3416H83.4093ZM83.4093 90.683V91.8538H82.2386V90.683H83.4093ZM82.2386 90.683V91.8538H81.0678V90.683H82.2386ZM81.0678 90.683V91.8538H79.8971V90.683H81.0678ZM79.8971 90.683V91.8538H78.7264V90.683H79.8971ZM78.7264 90.683V91.8538H77.5556V90.683H78.7264ZM78.7264 89.5123V90.683H77.5556V89.5123H78.7264ZM77.5556 89.5123V90.683H76.3849V89.5123H77.5556ZM76.3849 89.5123V90.683H75.2142V89.5123H76.3849ZM76.3849 88.3416V89.5123H75.2142V88.3416H76.3849ZM75.2142 88.3416V89.5123H74.0434V88.3416H75.2142ZM75.2142 87.1708V88.3416H74.0434V87.1708H75.2142ZM75.2142 86.0001V87.1708H74.0434V86.0001H75.2142ZM74.0434 86.0001V87.1708H72.8727V86.0001H74.0434ZM74.0434 84.8294V86.0001H72.8727V84.8294H74.0434ZM74.0434 83.6586V84.8294H72.8727V83.6586H74.0434ZM74.0434 82.4879V83.6586H72.8727V82.4879H74.0434ZM74.0434 81.3172V82.4879H72.8727V81.3172H74.0434ZM74.0434 80.1464V81.3172H72.8727V80.1464H74.0434ZM74.0434 78.9757V80.1464H72.8727V78.9757H74.0434ZM74.0434 77.805V78.9757H72.8727V77.805H74.0434ZM75.2142 77.805V78.9757H74.0434V77.805H75.2142ZM76.3849 77.805V78.9757H75.2142V77.805H76.3849ZM77.5556 77.805V78.9757H76.3849V77.805H77.5556ZM78.7264 77.805V78.9757H77.5556V77.805H78.7264ZM78.7264 78.9757V80.1464H77.5556V78.9757H78.7264ZM78.7264 80.1464V81.3172H77.5556V80.1464H78.7264ZM78.7264 81.3172V82.4879H77.5556V81.3172H78.7264ZM78.7264 82.4879V83.6586H77.5556V82.4879H78.7264ZM78.7264 83.6586V84.8294H77.5556V83.6586H78.7264ZM78.7264 84.8294V86.0001H77.5556V84.8294H78.7264ZM78.7264 86.0001V87.1708H77.5556V86.0001H78.7264ZM79.8971 86.0001V87.1708H78.7264V86.0001H79.8971ZM79.8971 87.1708V88.3416H78.7264V87.1708H79.8971ZM81.0678 87.1708V88.3416H79.8971V87.1708H81.0678ZM81.0678 88.3416V89.5123H79.8971V88.3416H81.0678ZM82.2386 88.3416V89.5123H81.0678V88.3416H82.2386ZM82.2386 87.1708V88.3416H81.0678V87.1708H82.2386ZM83.4093 89.5123V90.683H82.2386V89.5123H83.4093ZM82.2386 89.5123V90.683H81.0678V89.5123H82.2386ZM81.0678 89.5123V90.683H79.8971V89.5123H81.0678ZM79.8971 89.5123V90.683H78.7264V89.5123H79.8971ZM79.8971 88.3416V89.5123H78.7264V88.3416H79.8971ZM78.7264 88.3416V89.5123H77.5556V88.3416H78.7264ZM78.7264 87.1708V88.3416H77.5556V87.1708H78.7264ZM77.5556 87.1708V88.3416H76.3849V87.1708H77.5556ZM77.5556 88.3416V89.5123H76.3849V88.3416H77.5556ZM76.3849 87.1708V88.3416H75.2142V87.1708H76.3849ZM77.5556 86.0001V87.1708H76.3849V86.0001H77.5556ZM77.5556 84.8294V86.0001H76.3849V84.8294H77.5556ZM76.3849 86.0001V87.1708H75.2142V86.0001H76.3849ZM76.3849 84.8294V86.0001H75.2142V84.8294H76.3849ZM77.5556 83.6586V84.8294H76.3849V83.6586H77.5556ZM77.5556 82.4879V83.6586H76.3849V82.4879H77.5556ZM77.5556 81.3172V82.4879H76.3849V81.3172H77.5556ZM77.5556 80.1464V81.3172H76.3849V80.1464H77.5556ZM77.5556 78.9757V80.1464H76.3849V78.9757H77.5556ZM76.3849 78.9757V80.1464H75.2142V78.9757H76.3849ZM75.2142 78.9757V80.1464H74.0434V78.9757H75.2142ZM75.2142 80.1464V81.3172H74.0434V80.1464H75.2142ZM75.2142 81.3172V82.4879H74.0434V81.3172H75.2142ZM75.2142 82.4879V83.6586H74.0434V82.4879H75.2142ZM75.2142 83.6586V84.8294H74.0434V83.6586H75.2142ZM75.2142 84.8294V86.0001H74.0434V84.8294H75.2142ZM76.3849 83.6586V84.8294H75.2142V83.6586H76.3849ZM76.3849 82.4879V83.6586H75.2142V82.4879H76.3849ZM76.3849 81.3172V82.4879H75.2142V81.3172H76.3849ZM76.3849 80.1464V81.3172H75.2142V80.1464H76.3849ZM83.4093 70.7806V71.9513H82.2386V70.7806H83.4093ZM82.2386 70.7806V71.9513H81.0678V70.7806H82.2386ZM82.2386 71.9513V73.1221H81.0678V71.9513H82.2386ZM83.4093 71.9513V73.1221H82.2386V71.9513H83.4093ZM81.0678 71.9513V73.1221H79.8971V71.9513H81.0678ZM79.8971 71.9513V73.1221H78.7264V71.9513H79.8971ZM79.8971 70.7806V71.9513H78.7264V70.7806H79.8971ZM81.0678 70.7806V71.9513H79.8971V70.7806H81.0678ZM74.0434 68.4391V69.6099H72.8727V68.4391H74.0434ZM75.2142 67.2684V68.4391H74.0434V67.2684H75.2142ZM76.3849 66.0977V67.2684H75.2142V66.0977H76.3849ZM77.5556 64.9269V66.0977H76.3849V64.9269H77.5556ZM72.8727 70.7806V71.9513H71.702V70.7806H72.8727ZM72.8727 71.9513V73.1221H71.702V71.9513H72.8727ZM71.702 71.9513V73.1221H70.5312V71.9513H71.702ZM71.702 70.7806V71.9513H70.5312V70.7806H71.702ZM78.7264 63.7562V64.9269H77.5556V63.7562H78.7264ZM71.702 74.2928V75.4635H70.5312V74.2928H71.702ZM72.8727 74.2928V75.4635H71.702V74.2928H72.8727ZM79.8971 74.2928V75.4635H78.7264V74.2928H79.8971ZM81.0678 74.2928V75.4635H79.8971V74.2928H81.0678ZM82.2386 74.2928V75.4635H81.0678V74.2928H82.2386ZM83.4093 74.2928V75.4635H82.2386V74.2928H83.4093ZM103.325 70.7806V69.6099H104.496V70.7806H103.325ZM103.325 71.9513V70.7806H104.496V71.9513H103.325ZM103.325 73.1221V71.9513H104.496V73.1221H103.325ZM103.325 74.2928V73.1221H104.496V74.2928H103.325ZM103.325 75.4635V74.2928H104.496V75.4635H103.325ZM103.325 76.6342V75.4635H104.496V76.6342H103.325ZM103.325 77.805V76.6342H104.496V77.805H103.325ZM103.325 78.9757V77.805H104.496V78.9757H103.325ZM103.325 80.1464V78.9757H104.496V80.1464H103.325ZM103.325 81.3172V80.1464H104.496V81.3172H103.325ZM103.325 82.4879V81.3172H104.496V82.4879H103.325ZM103.325 83.6586V82.4879H104.496V83.6586H103.325ZM103.325 84.8294V83.6586H104.496V84.8294H103.325ZM103.325 86.0001V84.8294H104.496V86.0001H103.325ZM103.325 87.1708V86.0001H104.496V87.1708H103.325ZM102.155 87.1708V86.0001H103.325V87.1708H102.155ZM102.155 86.0001V84.8294H103.325V86.0001H102.155ZM102.155 84.8294V83.6586H103.325V84.8294H102.155ZM102.155 83.6586V82.4879H103.325V83.6586H102.155ZM102.155 82.4879V81.3172H103.325V82.4879H102.155ZM102.155 81.3172V80.1464H103.325V81.3172H102.155ZM102.155 80.1464V78.9757H103.325V80.1464H102.155ZM100.984 78.9757V77.805H102.155V78.9757H100.984ZM100.984 77.805V76.6342H102.155V77.805H100.984ZM100.984 76.6342V75.4635H102.155V76.6342H100.984ZM100.984 75.4635V74.2928H102.155V75.4635H100.984ZM100.984 74.2928V73.1221H102.155V74.2928H100.984ZM100.984 73.1221V71.9513H102.155V73.1221H100.984ZM100.984 71.9513V70.7806H102.155V71.9513H100.984ZM100.984 70.7806V69.6099H102.155V70.7806H100.984ZM99.8133 70.7806V69.6099H100.984V70.7806H99.8133ZM98.6425 70.7806V69.6099H99.8133V70.7806H98.6425ZM98.6425 71.9513V70.7806H99.8133V71.9513H98.6425ZM98.6425 73.1221V71.9513H99.8133V73.1221H98.6425ZM98.6425 74.2928V73.1221H99.8133V74.2928H98.6425ZM98.6425 75.4635V74.2928H99.8133V75.4635H98.6425ZM98.6425 76.6342V75.4635H99.8133V76.6342H98.6425ZM98.6425 77.805V76.6342H99.8133V77.805H98.6425ZM98.6425 78.9757V77.805H99.8133V78.9757H98.6425ZM99.8133 78.9757V77.805H100.984V78.9757H99.8133ZM99.8133 80.1464V78.9757H100.984V80.1464H99.8133ZM99.8133 77.805V76.6342H100.984V77.805H99.8133ZM99.8133 76.6342V75.4635H100.984V76.6342H99.8133ZM99.8133 75.4635V74.2928H100.984V75.4635H99.8133ZM99.8133 74.2928V73.1221H100.984V74.2928H99.8133ZM99.8133 73.1221V71.9513H100.984V73.1221H99.8133ZM99.8133 71.9513V70.7806H100.984V71.9513H99.8133ZM102.155 70.7806V69.6099H103.325V70.7806H102.155ZM102.155 71.9513V70.7806H103.325V71.9513H102.155ZM102.155 73.1221V71.9513H103.325V73.1221H102.155ZM102.155 74.2928V73.1221H103.325V74.2928H102.155ZM102.155 75.4635V74.2928H103.325V75.4635H102.155ZM102.155 76.6342V75.4635H103.325V76.6342H102.155ZM102.155 77.805V76.6342H103.325V77.805H102.155ZM102.155 78.9757V77.805H103.325V78.9757H102.155ZM103.325 91.8538V90.683H104.496V91.8538H103.325ZM103.325 90.683V89.5123H104.496V90.683H103.325ZM103.325 89.5123V88.3416H104.496V89.5123H103.325ZM103.325 88.3416V87.1708H104.496V88.3416H103.325ZM99.8133 90.683V89.5123H100.984V90.683H99.8133ZM99.8133 89.5123V88.3416H100.984V89.5123H99.8133ZM99.8133 88.3416V87.1708H100.984V88.3416H99.8133ZM99.8133 87.1708V86.0001H100.984V87.1708H99.8133ZM99.8133 86.0001V84.8294H100.984V86.0001H99.8133ZM99.8133 84.8294V83.6586H100.984V84.8294H99.8133ZM99.8133 83.6586V82.4879H100.984V83.6586H99.8133ZM98.6425 82.4879V81.3172H99.8133V82.4879H98.6425ZM98.6425 81.3172V80.1464H99.8133V81.3172H98.6425ZM98.6425 80.1464V78.9757H99.8133V80.1464H98.6425ZM98.6425 83.6586V82.4879H99.8133V83.6586H98.6425ZM98.6425 84.8294V83.6586H99.8133V84.8294H98.6425ZM98.6425 86.0001V84.8294H99.8133V86.0001H98.6425ZM98.6425 87.1708V86.0001H99.8133V87.1708H98.6425ZM98.6425 88.3416V87.1708H99.8133V88.3416H98.6425ZM98.6425 89.5123V88.3416H99.8133V89.5123H98.6425ZM98.6425 90.683V89.5123H99.8133V90.683H98.6425ZM98.6425 91.8538V90.683H99.8133V91.8538H98.6425ZM99.8133 91.8538V90.683H100.984V91.8538H99.8133ZM100.984 91.8538V90.683H102.155V91.8538H100.984ZM100.984 90.683V89.5123H102.155V90.683H100.984ZM102.155 89.5123V88.3416H103.325V89.5123H102.155ZM102.155 88.3416V87.1708H103.325V88.3416H102.155ZM102.155 90.683V89.5123H103.325V90.683H102.155ZM102.155 91.8538V90.683H103.325V91.8538H102.155ZM100.984 89.5123V88.3416H102.155V89.5123H100.984ZM100.984 88.3416V87.1708H102.155V88.3416H100.984ZM100.984 87.1708V86.0001H102.155V87.1708H100.984ZM100.984 86.0001V84.8294H102.155V86.0001H100.984ZM100.984 84.8294V83.6586H102.155V84.8294H100.984ZM100.984 83.6586V82.4879H102.155V83.6586H100.984ZM100.984 82.4879V81.3172H102.155V82.4879H100.984ZM100.984 81.3172V80.1464H102.155V81.3172H100.984ZM100.984 80.1464V78.9757H102.155V80.1464H100.984ZM99.8133 81.3172V80.1464H100.984V81.3172H99.8133ZM99.8133 82.4879V81.3172H100.984V82.4879H99.8133ZM90.4474 70.7806V69.6099H91.6181V70.7806H90.4474ZM89.2767 70.7806V69.6099H90.4474V70.7806H89.2767ZM88.1059 70.7806V69.6099H89.2767V70.7806H88.1059ZM86.9352 70.7806V69.6099H88.1059V70.7806H86.9352ZM85.7645 71.9513V70.7806H86.9352V71.9513H85.7645ZM85.7645 73.1221V71.9513H86.9352V73.1221H85.7645ZM85.7645 70.7806V69.6099H86.9352V70.7806H85.7645ZM86.9352 71.9513V70.7806H88.1059V71.9513H86.9352ZM88.1059 71.9513V70.7806H89.2767V71.9513H88.1059ZM89.2767 71.9513V70.7806H90.4474V71.9513H89.2767ZM90.4474 71.9513V70.7806H91.6181V71.9513H90.4474ZM90.4474 73.1221V71.9513H91.6181V73.1221H90.4474ZM90.4474 74.2928V73.1221H91.6181V74.2928H90.4474ZM89.2767 74.2928V73.1221H90.4474V74.2928H89.2767ZM88.1059 74.2928V73.1221H89.2767V74.2928H88.1059ZM86.9352 74.2928V73.1221H88.1059V74.2928H86.9352ZM85.7645 74.2928V73.1221H86.9352V74.2928H85.7645ZM86.9352 73.1221V71.9513H88.1059V73.1221H86.9352ZM88.1059 73.1221V71.9513H89.2767V73.1221H88.1059ZM89.2767 73.1221V71.9513H90.4474V73.1221H89.2767ZM85.7645 87.1708V86.0001H86.9352V87.1708H85.7645ZM86.9352 87.1708V86.0001H88.1059V87.1708H86.9352ZM89.2767 87.1708V86.0001H90.4474V87.1708H89.2767ZM89.2767 86.0001V84.8294H90.4474V86.0001H89.2767ZM89.2767 84.8294V83.6586H90.4474V84.8294H89.2767ZM90.4474 83.6586V82.4879H91.6181V83.6586H90.4474ZM90.4474 82.4879V81.3172H91.6181V82.4879H90.4474ZM90.4474 81.3172V80.1464H91.6181V81.3172H90.4474ZM90.4474 80.1464V78.9757H91.6181V80.1464H90.4474ZM90.4474 78.9757V77.805H91.6181V78.9757H90.4474ZM90.4474 77.805V76.6342H91.6181V77.805H90.4474ZM90.4474 76.6342V75.4635H91.6181V76.6342H90.4474ZM90.4474 75.4635V74.2928H91.6181V75.4635H90.4474ZM89.2767 75.4635V74.2928H90.4474V75.4635H89.2767ZM88.1059 75.4635V74.2928H89.2767V75.4635H88.1059ZM86.9352 75.4635V74.2928H88.1059V75.4635H86.9352ZM85.7645 75.4635V74.2928H86.9352V75.4635H85.7645ZM85.7645 76.6342V75.4635H86.9352V76.6342H85.7645ZM85.7645 78.9757V77.805H86.9352V78.9757H85.7645ZM85.7645 80.1464V78.9757H86.9352V80.1464H85.7645ZM85.7645 81.3172V80.1464H86.9352V81.3172H85.7645ZM85.7645 82.4879V81.3172H86.9352V82.4879H85.7645ZM85.7645 83.6586V82.4879H86.9352V83.6586H85.7645ZM85.7645 84.8294V83.6586H86.9352V84.8294H85.7645ZM85.7645 86.0001V84.8294H86.9352V86.0001H85.7645ZM86.9352 81.3172V80.1464H88.1059V81.3172H86.9352ZM86.9352 78.9757V77.805H88.1059V78.9757H86.9352ZM86.9352 77.805V76.6342H88.1059V77.805H86.9352ZM86.9352 76.6342V75.4635H88.1059V76.6342H86.9352ZM85.7645 77.805V76.6342H86.9352V77.805H85.7645ZM86.9352 83.6586V82.4879H88.1059V83.6586H86.9352ZM88.1059 83.6586V82.4879H89.2767V83.6586H88.1059ZM89.2767 83.6586V82.4879H90.4474V83.6586H89.2767ZM89.2767 82.4879V81.3172H90.4474V82.4879H89.2767ZM89.2767 81.3172V80.1464H90.4474V81.3172H89.2767ZM89.2767 80.1464V78.9757H90.4474V80.1464H89.2767ZM89.2767 78.9757V77.805H90.4474V78.9757H89.2767ZM89.2767 77.805V76.6342H90.4474V77.805H89.2767ZM89.2767 76.6342V75.4635H90.4474V76.6342H89.2767ZM88.1059 76.6342V75.4635H89.2767V76.6342H88.1059ZM88.1059 77.805V76.6342H89.2767V77.805H88.1059ZM88.1059 78.9757V77.805H89.2767V78.9757H88.1059ZM88.1059 80.1464V78.9757H89.2767V80.1464H88.1059ZM88.1059 81.3172V80.1464H89.2767V81.3172H88.1059ZM88.1059 82.4879V81.3172H89.2767V82.4879H88.1059ZM86.9352 82.4879V81.3172H88.1059V82.4879H86.9352ZM86.9352 80.1464V78.9757H88.1059V80.1464H86.9352ZM86.9352 84.8294V83.6586H88.1059V84.8294H86.9352ZM86.9352 86.0001V84.8294H88.1059V86.0001H86.9352ZM88.1059 86.0001V84.8294H89.2767V86.0001H88.1059ZM88.1059 84.8294V83.6586H89.2767V84.8294H88.1059ZM90.4474 84.8294V83.6586H91.6181V84.8294H90.4474ZM90.4474 86.0001V84.8294H91.6181V86.0001H90.4474ZM90.4474 87.1708V86.0001H91.6181V87.1708H90.4474ZM88.1059 87.1708V86.0001H89.2767V87.1708H88.1059ZM90.4474 91.8538V90.683H91.6181V91.8538H90.4474ZM90.4474 90.683V89.5123H91.6181V90.683H90.4474ZM89.2767 90.683V89.5123H90.4474V90.683H89.2767ZM88.1059 90.683V89.5123H89.2767V90.683H88.1059ZM88.1059 89.5123V88.3416H89.2767V89.5123H88.1059ZM86.9352 89.5123V88.3416H88.1059V89.5123H86.9352ZM86.9352 88.3416V87.1708H88.1059V88.3416H86.9352ZM88.1059 88.3416V87.1708H89.2767V88.3416H88.1059ZM89.2767 88.3416V87.1708H90.4474V88.3416H89.2767ZM89.2767 89.5123V88.3416H90.4474V89.5123H89.2767ZM90.4474 89.5123V88.3416H91.6181V89.5123H90.4474ZM91.6181 89.5123V88.3416H92.7889V89.5123H91.6181ZM91.6181 88.3416V87.1708H92.7889V88.3416H91.6181ZM90.4474 88.3416V87.1708H91.6181V88.3416H90.4474ZM91.6181 87.1708V86.0001H92.7889V87.1708H91.6181ZM92.7889 88.3416V87.1708H93.9596V88.3416H92.7889ZM92.7889 89.5123V88.3416H93.9596V89.5123H92.7889ZM92.7889 90.683V89.5123H93.9596V90.683H92.7889ZM92.7889 91.8538V90.683H93.9596V91.8538H92.7889ZM91.6181 91.8538V90.683H92.7889V91.8538H91.6181ZM91.6181 90.683V89.5123H92.7889V90.683H91.6181ZM93.9596 91.8538V90.683H95.1303V91.8538H93.9596ZM93.9596 90.683V89.5123H95.1303V90.683H93.9596ZM93.9596 89.5123V88.3416H95.1303V89.5123H93.9596ZM93.9596 88.3416V87.1708H95.1303V88.3416H93.9596ZM95.1303 91.8538V90.683H96.3011V91.8538H95.1303ZM95.1303 90.683V89.5123H96.3011V90.683H95.1303ZM96.3011 90.683V89.5123H97.4718V90.683H96.3011ZM96.3011 89.5123V88.3416H97.4718V89.5123H96.3011ZM97.4718 89.5123V88.3416H98.6425V89.5123H97.4718ZM97.4718 88.3416V87.1708H98.6425V88.3416H97.4718ZM96.3011 88.3416V87.1708H97.4718V88.3416H96.3011ZM95.1303 88.3416V87.1708H96.3011V88.3416H95.1303ZM95.1303 89.5123V88.3416H96.3011V89.5123H95.1303ZM96.3011 91.8538V90.683H97.4718V91.8538H96.3011ZM97.4718 90.683V89.5123H98.6425V90.683H97.4718ZM98.6425 86.0001V87.1708H97.4718V86.0001H98.6425ZM120.908 73.1221V74.2928H119.737V73.1221H120.908ZM120.908 71.9513V73.1221H119.737V71.9513H120.908ZM120.908 70.7806V71.9513H119.737V70.7806H120.908ZM119.737 70.7806V71.9513H118.567V70.7806H119.737ZM119.737 69.6099V70.7806H118.567V69.6099H119.737ZM119.737 71.9513V73.1221H118.567V71.9513H119.737ZM118.567 71.9513V73.1221H117.396V71.9513H118.567ZM118.567 73.1221V74.2928H117.396V73.1221H118.567ZM119.737 73.1221V74.2928H118.567V73.1221H119.737ZM117.396 73.1221V74.2928H116.225V73.1221H117.396ZM117.396 71.9513V73.1221H116.225V71.9513H117.396ZM117.396 70.7806V71.9513H116.225V70.7806H117.396ZM117.396 69.6099V70.7806H116.225V69.6099H117.396ZM118.567 69.6099V70.7806H117.396V69.6099H118.567ZM118.567 70.7806V71.9513H117.396V70.7806H118.567ZM116.225 69.6099V70.7806H115.054V69.6099H116.225ZM115.054 69.6099V70.7806H113.884V69.6099H115.054ZM113.884 69.6099V70.7806H112.713V69.6099H113.884ZM113.884 70.7806V71.9513H112.713V70.7806H113.884ZM113.884 71.9513V73.1221H112.713V71.9513H113.884ZM113.884 73.1221V74.2928H112.713V73.1221H113.884ZM115.054 73.1221V74.2928H113.884V73.1221H115.054ZM116.225 73.1221V74.2928H115.054V73.1221H116.225ZM116.225 71.9513V73.1221H115.054V71.9513H116.225ZM116.225 70.7806V71.9513H115.054V70.7806H116.225ZM115.054 70.7806V71.9513H113.884V70.7806H115.054ZM115.054 71.9513V73.1221H113.884V71.9513H115.054ZM112.713 71.9513V73.1221H111.542V71.9513H112.713ZM112.713 70.7806V71.9513H111.542V70.7806H112.713ZM111.542 70.7806V71.9513H110.372V70.7806H111.542ZM111.542 71.9513V73.1221H110.372V71.9513H111.542ZM110.372 71.9513V73.1221H109.201V71.9513H110.372ZM110.372 73.1221V74.2928H109.201V73.1221H110.372ZM110.372 74.2928V75.4635H109.201V74.2928H110.372ZM111.542 74.2928V75.4635H110.372V74.2928H111.542ZM111.542 73.1221V74.2928H110.372V73.1221H111.542ZM112.713 73.1221V74.2928H111.542V73.1221H112.713ZM112.713 74.2928V75.4635H111.542V74.2928H112.713ZM113.884 74.2928V75.4635H112.713V74.2928H113.884ZM115.054 74.2928V75.4635H113.884V74.2928H115.054ZM109.201 74.2928V75.4635H108.03V74.2928H109.201ZM109.201 75.4635V76.6342H108.03V75.4635H109.201ZM109.201 76.6342V77.805H108.03V76.6342H109.201ZM109.201 77.805V78.9757H108.03V77.805H109.201ZM109.201 78.9757V80.1464H108.03V78.9757H109.201ZM109.201 80.1464V81.3172H108.03V80.1464H109.201ZM109.201 81.3172V82.4879H108.03V81.3172H109.201ZM109.201 82.4879V83.6586H108.03V82.4879H109.201ZM109.201 83.6586V84.8294H108.03V83.6586H109.201ZM109.201 84.8294V86.0001H108.03V84.8294H109.201ZM110.372 84.8294V86.0001H109.201V84.8294H110.372ZM110.372 86.0001V87.1708H109.201V86.0001H110.372ZM109.201 86.0001V87.1708H108.03V86.0001H109.201ZM111.542 86.0001V87.1708H110.372V86.0001H111.542ZM112.713 86.0001V87.1708H111.542V86.0001H112.713ZM113.884 86.0001V87.1708H112.713V86.0001H113.884ZM115.054 86.0001V87.1708H113.884V86.0001H115.054ZM113.884 84.8294V86.0001H112.713V84.8294H113.884ZM113.884 83.6586V84.8294H112.713V83.6586H113.884ZM113.884 82.4879V83.6586H112.713V82.4879H113.884ZM113.884 81.3172V82.4879H112.713V81.3172H113.884ZM113.884 80.1464V81.3172H112.713V80.1464H113.884ZM113.884 78.9757V80.1464H112.713V78.9757H113.884ZM113.884 77.805V78.9757H112.713V77.805H113.884ZM113.884 76.6342V77.805H112.713V76.6342H113.884ZM113.884 75.4635V76.6342H112.713V75.4635H113.884ZM112.713 75.4635V76.6342H111.542V75.4635H112.713ZM111.542 75.4635V76.6342H110.372V75.4635H111.542ZM110.372 75.4635V76.6342H109.201V75.4635H110.372ZM110.372 76.6342V77.805H109.201V76.6342H110.372ZM110.372 77.805V78.9757H109.201V77.805H110.372ZM110.372 78.9757V80.1464H109.201V78.9757H110.372ZM110.372 80.1464V81.3172H109.201V80.1464H110.372ZM110.372 81.3172V82.4879H109.201V81.3172H110.372ZM110.372 82.4879V83.6586H109.201V82.4879H110.372ZM110.372 83.6586V84.8294H109.201V83.6586H110.372ZM111.542 84.8294V86.0001H110.372V84.8294H111.542ZM112.713 84.8294V86.0001H111.542V84.8294H112.713ZM112.713 83.6586V84.8294H111.542V83.6586H112.713ZM112.713 82.4879V83.6586H111.542V82.4879H112.713ZM112.713 81.3172V82.4879H111.542V81.3172H112.713ZM112.713 80.1464V81.3172H111.542V80.1464H112.713ZM111.542 80.1464V81.3172H110.372V80.1464H111.542ZM111.542 78.9757V80.1464H110.372V78.9757H111.542ZM111.542 77.805V78.9757H110.372V77.805H111.542ZM111.542 76.6342V77.805H110.372V76.6342H111.542ZM112.713 76.6342V77.805H111.542V76.6342H112.713ZM112.713 77.805V78.9757H111.542V77.805H112.713ZM112.713 78.9757V80.1464H111.542V78.9757H112.713ZM111.542 82.4879V83.6586H110.372V82.4879H111.542ZM111.542 83.6586V84.8294H110.372V83.6586H111.542ZM111.542 81.3172V82.4879H110.372V81.3172H111.542ZM120.908 87.1708V88.3416H119.737V87.1708H120.908ZM119.737 90.683V91.8538H118.567V90.683H119.737ZM118.567 90.683V91.8538H117.396V90.683H118.567ZM117.396 90.683V91.8538H116.225V90.683H117.396ZM116.225 90.683V91.8538H115.054V90.683H116.225ZM115.054 90.683V91.8538H113.884V90.683H115.054ZM113.884 90.683V91.8538H112.713V90.683H113.884ZM115.054 89.5123V90.683H113.884V89.5123H115.054ZM116.225 89.5123V90.683H115.054V89.5123H116.225ZM117.396 89.5123V90.683H116.225V89.5123H117.396ZM118.567 89.5123V90.683H117.396V89.5123H118.567ZM119.737 89.5123V90.683H118.567V89.5123H119.737ZM120.908 89.5123V90.683H119.737V89.5123H120.908ZM120.908 88.3416V89.5123H119.737V88.3416H120.908ZM119.737 88.3416V89.5123H118.567V88.3416H119.737ZM118.567 88.3416V89.5123H117.396V88.3416H118.567ZM117.396 88.3416V89.5123H116.225V88.3416H117.396ZM116.225 88.3416V89.5123H115.054V88.3416H116.225ZM115.054 88.3416V89.5123H113.884V88.3416H115.054ZM113.884 89.5123V90.683H112.713V89.5123H113.884ZM112.713 89.5123V90.683H111.542V89.5123H112.713ZM111.542 89.5123V90.683H110.372V89.5123H111.542ZM111.542 88.3416V89.5123H110.372V88.3416H111.542ZM110.372 88.3416V89.5123H109.201V88.3416H110.372ZM110.372 87.1708V88.3416H109.201V87.1708H110.372ZM111.542 87.1708V88.3416H110.372V87.1708H111.542ZM112.713 87.1708V88.3416H111.542V87.1708H112.713ZM113.884 87.1708V88.3416H112.713V87.1708H113.884ZM115.054 87.1708V88.3416H113.884V87.1708H115.054ZM116.225 87.1708V88.3416H115.054V87.1708H116.225ZM117.396 87.1708V88.3416H116.225V87.1708H117.396ZM118.567 87.1708V88.3416H117.396V87.1708H118.567ZM119.737 87.1708V88.3416H118.567V87.1708H119.737ZM113.884 88.3416V89.5123H112.713V88.3416H113.884ZM112.713 88.3416V89.5123H111.542V88.3416H112.713ZM122.079 88.3416V89.5123H120.908V88.3416H122.079ZM122.079 87.1708V88.3416H120.908V87.1708H122.079ZM122.079 86.0001V87.1708H120.908V86.0001H122.079ZM122.079 84.8294V86.0001H120.908V84.8294H122.079ZM122.079 83.6586V84.8294H120.908V83.6586H122.079ZM122.079 82.4879V83.6586H120.908V82.4879H122.079ZM122.079 81.3172V82.4879H120.908V81.3172H122.079ZM122.079 80.1464V81.3172H120.908V80.1464H122.079ZM122.079 78.9757V80.1464H120.908V78.9757H122.079ZM122.079 77.805V78.9757H120.908V77.805H122.079ZM122.079 76.6342V77.805H120.908V76.6342H122.079ZM122.079 75.4635V76.6342H120.908V75.4635H122.079ZM122.079 74.2928V75.4635H120.908V74.2928H122.079ZM123.25 74.2928V75.4635H122.079V74.2928H123.25ZM123.25 75.4635V76.6342H122.079V75.4635H123.25ZM123.25 76.6342V77.805H122.079V76.6342H123.25ZM123.25 77.805V78.9757H122.079V77.805H123.25ZM123.25 78.9757V80.1464H122.079V78.9757H123.25ZM123.25 80.1464V81.3172H122.079V80.1464H123.25ZM123.25 81.3172V82.4879H122.079V81.3172H123.25ZM124.42 82.4879V83.6586H123.25V82.4879H124.42ZM124.42 83.6586V84.8294H123.25V83.6586H124.42ZM124.42 84.8294V86.0001H123.25V84.8294H124.42ZM124.42 86.0001V87.1708H123.25V86.0001H124.42ZM124.42 87.1708V88.3416H123.25V87.1708H124.42ZM124.42 88.3416V89.5123H123.25V88.3416H124.42ZM124.42 89.5123V90.683H123.25V89.5123H124.42ZM124.42 90.683V91.8538H123.25V90.683H124.42ZM125.591 90.683V91.8538H124.42V90.683H125.591ZM126.762 90.683V91.8538H125.591V90.683H126.762ZM126.762 89.5123V90.683H125.591V89.5123H126.762ZM126.762 88.3416V89.5123H125.591V88.3416H126.762ZM126.762 87.1708V88.3416H125.591V87.1708H126.762ZM126.762 86.0001V87.1708H125.591V86.0001H126.762ZM126.762 84.8294V86.0001H125.591V84.8294H126.762ZM126.762 83.6586V84.8294H125.591V83.6586H126.762ZM126.762 82.4879V83.6586H125.591V82.4879H126.762ZM125.591 82.4879V83.6586H124.42V82.4879H125.591ZM125.591 81.3172V82.4879H124.42V81.3172H125.591ZM125.591 83.6586V84.8294H124.42V83.6586H125.591ZM125.591 84.8294V86.0001H124.42V84.8294H125.591ZM125.591 86.0001V87.1708H124.42V86.0001H125.591ZM125.591 87.1708V88.3416H124.42V87.1708H125.591ZM125.591 88.3416V89.5123H124.42V88.3416H125.591ZM125.591 89.5123V90.683H124.42V89.5123H125.591ZM123.25 88.3416V89.5123H122.079V88.3416H123.25ZM123.25 87.1708V88.3416H122.079V87.1708H123.25ZM123.25 86.0001V87.1708H122.079V86.0001H123.25ZM123.25 84.8294V86.0001H122.079V84.8294H123.25ZM123.25 83.6586V84.8294H122.079V83.6586H123.25ZM123.25 82.4879V83.6586H122.079V82.4879H123.25ZM122.079 62.5855V63.7562H120.908V62.5855H122.079ZM122.079 63.7562V64.9269H120.908V63.7562H122.079ZM122.079 64.9269V66.0977H120.908V64.9269H122.079ZM122.079 66.0977V67.2684H120.908V66.0977H122.079ZM122.079 67.2684V68.4391H120.908V67.2684H122.079ZM122.079 68.4391V69.6099H120.908V68.4391H122.079ZM122.079 70.7806V71.9513H120.908V70.7806H122.079ZM122.079 73.1221V74.2928H120.908V73.1221H122.079ZM125.591 62.5855V63.7562H124.42V62.5855H125.591ZM125.591 63.7562V64.9269H124.42V63.7562H125.591ZM125.591 64.9269V66.0977H124.42V64.9269H125.591ZM125.591 66.0977V67.2684H124.42V66.0977H125.591ZM125.591 67.2684V68.4391H124.42V67.2684H125.591ZM125.591 68.4391V69.6099H124.42V68.4391H125.591ZM125.591 70.7806V71.9513H124.42V70.7806H125.591ZM125.591 71.9513V73.1221H124.42V71.9513H125.591ZM125.591 73.1221V74.2928H124.42V73.1221H125.591ZM125.591 75.4635V76.6342H124.42V75.4635H125.591ZM125.591 76.6342V77.805H124.42V76.6342H125.591ZM125.591 77.805V78.9757H124.42V77.805H125.591ZM126.762 78.9757V80.1464H125.591V78.9757H126.762ZM126.762 80.1464V81.3172H125.591V80.1464H126.762ZM126.762 81.3172V82.4879H125.591V81.3172H126.762ZM126.762 77.805V78.9757H125.591V77.805H126.762ZM126.762 76.6342V77.805H125.591V76.6342H126.762ZM126.762 74.2928V75.4635H125.591V74.2928H126.762ZM126.762 73.1221V74.2928H125.591V73.1221H126.762ZM126.762 71.9513V73.1221H125.591V71.9513H126.762ZM126.762 70.7806V71.9513H125.591V70.7806H126.762ZM126.762 69.6099V70.7806H125.591V69.6099H126.762ZM126.762 68.4391V69.6099H125.591V68.4391H126.762ZM126.762 67.2684V68.4391H125.591V67.2684H126.762ZM125.591 69.6099V70.7806H124.42V69.6099H125.591ZM126.762 66.0977V67.2684H125.591V66.0977H126.762ZM126.762 64.9269V66.0977H125.591V64.9269H126.762ZM126.762 63.7562V64.9269H125.591V63.7562H126.762ZM126.762 62.5855V63.7562H125.591V62.5855H126.762ZM124.42 62.5855V63.7562H123.25V62.5855H124.42ZM123.25 62.5855V63.7562H122.079V62.5855H123.25ZM123.25 63.7562V64.9269H122.079V63.7562H123.25ZM124.42 63.7562V64.9269H123.25V63.7562H124.42ZM124.42 64.9269V66.0977H123.25V64.9269H124.42ZM124.42 66.0977V67.2684H123.25V66.0977H124.42ZM124.42 67.2684V68.4391H123.25V67.2684H124.42ZM124.42 68.4391V69.6099H123.25V68.4391H124.42ZM124.42 69.6099V70.7806H123.25V69.6099H124.42ZM124.42 70.7806V71.9513H123.25V70.7806H124.42ZM123.25 71.9513V73.1221H122.079V71.9513H123.25ZM123.25 73.1221V74.2928H122.079V73.1221H123.25ZM123.25 70.7806V71.9513H122.079V70.7806H123.25ZM123.25 69.6099V70.7806H122.079V69.6099H123.25ZM123.25 68.4391V69.6099H122.079V68.4391H123.25ZM123.25 67.2684V68.4391H122.079V67.2684H123.25ZM123.25 66.0977V67.2684H122.079V66.0977H123.25ZM123.25 64.9269V66.0977H122.079V64.9269H123.25ZM124.42 73.1221V74.2928H123.25V73.1221H124.42ZM124.42 75.4635V76.6342H123.25V75.4635H124.42ZM124.42 76.6342V77.805H123.25V76.6342H124.42ZM124.42 77.805V78.9757H123.25V77.805H124.42ZM124.42 78.9757V80.1464H123.25V78.9757H124.42ZM124.42 80.1464V81.3172H123.25V80.1464H124.42ZM124.42 81.3172V82.4879H123.25V81.3172H124.42ZM125.591 80.1464V81.3172H124.42V80.1464H125.591ZM125.591 78.9757V80.1464H124.42V78.9757H125.591ZM122.079 69.6099V70.7806H120.908V69.6099H122.079ZM126.762 75.4635V76.6342H125.591V75.4635H126.762ZM122.079 71.9513V73.1221H120.908V71.9513H122.079ZM124.42 71.9513V73.1221H123.25V71.9513H124.42ZM124.42 74.2928V75.4635H123.25V74.2928H124.42ZM125.591 74.2928V75.4635H124.42V74.2928H125.591ZM122.079 89.5123V90.683H120.908V89.5123H122.079ZM123.25 89.5123V90.683H122.079V89.5123H123.25ZM123.25 90.683V91.8538H122.079V90.683H123.25ZM120.908 69.6099V70.7806H119.737V69.6099H120.908ZM120.908 86.0001V87.1708H119.737V86.0001H120.908ZM122.079 90.683V91.8538H120.908V90.683H122.079ZM134.979 84.8294V83.6586H136.149V84.8294H134.979ZM133.808 84.8294V83.6586H134.979V84.8294H133.808ZM132.637 84.8294V83.6586H133.808V84.8294H132.637ZM131.466 84.8294V83.6586H132.637V84.8294H131.466ZM130.296 84.8294V83.6586H131.466V84.8294H130.296ZM130.296 86.0001V84.8294H131.466V86.0001H130.296ZM130.296 87.1708V86.0001H131.466V87.1708H130.296ZM131.466 87.1708V86.0001H132.637V87.1708H131.466ZM132.637 87.1708V86.0001H133.808V87.1708H132.637ZM133.808 87.1708V86.0001H134.979V87.1708H133.808ZM133.808 86.0001V84.8294H134.979V86.0001H133.808ZM134.979 86.0001V84.8294H136.149V86.0001H134.979ZM132.637 86.0001V84.8294H133.808V86.0001H132.637ZM131.466 86.0001V84.8294H132.637V86.0001H131.466ZM134.979 87.1708V86.0001H136.149V87.1708H134.979ZM136.149 87.1708V86.0001H137.32V87.1708H136.149ZM136.149 88.3416V87.1708H137.32V88.3416H136.149ZM134.979 88.3416V87.1708H136.149V88.3416H134.979ZM133.808 88.3416V87.1708H134.979V88.3416H133.808ZM132.637 88.3416V87.1708H133.808V88.3416H132.637ZM131.466 88.3416V87.1708H132.637V88.3416H131.466ZM131.466 89.5123V88.3416H132.637V89.5123H131.466ZM132.637 89.5123V88.3416H133.808V89.5123H132.637ZM133.808 89.5123V88.3416H134.979V89.5123H133.808ZM134.979 89.5123V88.3416H136.149V89.5123H134.979ZM136.149 89.5123V88.3416H137.32V89.5123H136.149ZM133.808 90.683V89.5123H134.979V90.683H133.808ZM132.637 90.683V89.5123H133.808V90.683H132.637ZM134.979 90.683V89.5123H136.149V90.683H134.979ZM134.979 91.8538V90.683H136.149V91.8538H134.979ZM136.149 91.8538V90.683H137.32V91.8538H136.149ZM136.149 90.683V89.5123H137.32V90.683H136.149ZM137.32 90.683V89.5123H138.491V90.683H137.32ZM137.32 91.8538V90.683H138.491V91.8538H137.32ZM137.32 89.5123V88.3416H138.491V89.5123H137.32ZM138.491 89.5123V88.3416H139.662V89.5123H138.491ZM138.491 88.3416V87.1708H139.662V88.3416H138.491ZM137.32 88.3416V87.1708H138.491V88.3416H137.32ZM139.662 88.3416V87.1708H140.832V88.3416H139.662ZM139.662 89.5123V88.3416H140.832V89.5123H139.662ZM139.662 90.683V89.5123H140.832V90.683H139.662ZM139.662 91.8538V90.683H140.832V91.8538H139.662ZM138.491 91.8538V90.683H139.662V91.8538H138.491ZM138.491 90.683V89.5123H139.662V90.683H138.491ZM140.832 91.8538V90.683H142.003V91.8538H140.832ZM143.174 90.683V89.5123H144.345V90.683H143.174ZM143.174 89.5123V88.3416H144.345V89.5123H143.174ZM143.174 88.3416V87.1708H144.345V88.3416H143.174ZM142.003 88.3416V87.1708H143.174V88.3416H142.003ZM140.832 88.3416V87.1708H142.003V88.3416H140.832ZM140.832 89.5123V88.3416H142.003V89.5123H140.832ZM140.832 90.683V89.5123H142.003V90.683H140.832ZM142.003 90.683V89.5123H143.174V90.683H142.003ZM142.003 89.5123V88.3416H143.174V89.5123H142.003ZM144.345 89.5123V88.3416H145.515V89.5123H144.345ZM144.345 90.683V89.5123H145.515V90.683H144.345ZM145.515 90.683V89.5123H146.686V90.683H145.515ZM145.515 89.5123V88.3416H146.686V89.5123H145.515ZM146.686 89.5123V88.3416H147.857V89.5123H146.686ZM146.686 88.3416V87.1708H147.857V88.3416H146.686ZM146.686 87.1708V86.0001H147.857V87.1708H146.686ZM145.515 87.1708V86.0001H146.686V87.1708H145.515ZM145.515 88.3416V87.1708H146.686V88.3416H145.515ZM144.345 88.3416V87.1708H145.515V88.3416H144.345ZM144.345 87.1708V86.0001H145.515V87.1708H144.345ZM143.174 87.1708V86.0001H144.345V87.1708H143.174ZM147.857 87.1708V86.0001H149.027V87.1708H147.857ZM147.857 86.0001V84.8294H149.027V86.0001H147.857ZM147.857 84.8294V83.6586H149.027V84.8294H147.857ZM147.857 83.6586V82.4879H149.027V83.6586H147.857ZM147.857 82.4879V81.3172H149.027V82.4879H147.857ZM147.857 81.3172V80.1464H149.027V81.3172H147.857ZM147.857 80.1464V78.9757H149.027V80.1464H147.857ZM147.857 78.9757V77.805H149.027V78.9757H147.857ZM147.857 77.805V76.6342H149.027V77.805H147.857ZM147.857 76.6342V75.4635H149.027V76.6342H147.857ZM146.686 76.6342V75.4635H147.857V76.6342H146.686ZM146.686 75.4635V74.2928H147.857V75.4635H146.686ZM147.857 75.4635V74.2928H149.027V75.4635H147.857ZM145.515 75.4635V74.2928H146.686V75.4635H145.515ZM144.345 75.4635V74.2928H145.515V75.4635H144.345ZM143.174 75.4635V74.2928H144.345V75.4635H143.174ZM142.003 75.4635V74.2928H143.174V75.4635H142.003ZM143.174 76.6342V75.4635H144.345V76.6342H143.174ZM143.174 77.805V76.6342H144.345V77.805H143.174ZM143.174 78.9757V77.805H144.345V78.9757H143.174ZM143.174 80.1464V78.9757H144.345V80.1464H143.174ZM143.174 81.3172V80.1464H144.345V81.3172H143.174ZM143.174 82.4879V81.3172H144.345V82.4879H143.174ZM143.174 83.6586V82.4879H144.345V83.6586H143.174ZM143.174 84.8294V83.6586H144.345V84.8294H143.174ZM143.174 86.0001V84.8294H144.345V86.0001H143.174ZM144.345 86.0001V84.8294H145.515V86.0001H144.345ZM145.515 86.0001V84.8294H146.686V86.0001H145.515ZM146.686 86.0001V84.8294H147.857V86.0001H146.686ZM146.686 84.8294V83.6586H147.857V84.8294H146.686ZM146.686 83.6586V82.4879H147.857V83.6586H146.686ZM146.686 82.4879V81.3172H147.857V82.4879H146.686ZM146.686 81.3172V80.1464H147.857V81.3172H146.686ZM146.686 80.1464V78.9757H147.857V80.1464H146.686ZM146.686 78.9757V77.805H147.857V78.9757H146.686ZM146.686 77.805V76.6342H147.857V77.805H146.686ZM145.515 76.6342V75.4635H146.686V76.6342H145.515ZM144.345 76.6342V75.4635H145.515V76.6342H144.345ZM144.345 77.805V76.6342H145.515V77.805H144.345ZM144.345 78.9757V77.805H145.515V78.9757H144.345ZM144.345 80.1464V78.9757H145.515V80.1464H144.345ZM144.345 81.3172V80.1464H145.515V81.3172H144.345ZM145.515 81.3172V80.1464H146.686V81.3172H145.515ZM145.515 82.4879V81.3172H146.686V82.4879H145.515ZM145.515 83.6586V82.4879H146.686V83.6586H145.515ZM145.515 84.8294V83.6586H146.686V84.8294H145.515ZM144.345 84.8294V83.6586H145.515V84.8294H144.345ZM144.345 83.6586V82.4879H145.515V83.6586H144.345ZM144.345 82.4879V81.3172H145.515V82.4879H144.345ZM145.515 78.9757V77.805H146.686V78.9757H145.515ZM145.515 77.805V76.6342H146.686V77.805H145.515ZM145.515 80.1464V78.9757H146.686V80.1464H145.515ZM134.979 76.6342V75.4635H136.149V76.6342H134.979ZM133.808 76.6342V75.4635H134.979V76.6342H133.808ZM132.637 76.6342V75.4635H133.808V76.6342H132.637ZM131.466 76.6342V75.4635H132.637V76.6342H131.466ZM130.296 76.6342V75.4635H131.466V76.6342H130.296ZM130.296 75.4635V74.2928H131.466V75.4635H130.296ZM131.466 75.4635V74.2928H132.637V75.4635H131.466ZM132.637 75.4635V74.2928H133.808V75.4635H132.637ZM133.808 75.4635V74.2928H134.979V75.4635H133.808ZM134.979 75.4635V74.2928H136.149V75.4635H134.979ZM136.149 75.4635V74.2928H137.32V75.4635H136.149ZM136.149 74.2928V73.1221H137.32V74.2928H136.149ZM134.979 74.2928V73.1221H136.149V74.2928H134.979ZM133.808 74.2928V73.1221H134.979V74.2928H133.808ZM132.637 74.2928V73.1221H133.808V74.2928H132.637ZM132.637 73.1221V71.9513H133.808V73.1221H132.637ZM131.466 73.1221V71.9513H132.637V73.1221H131.466ZM131.466 74.2928V73.1221H132.637V74.2928H131.466ZM132.637 71.9513V70.7806H133.808V71.9513H132.637ZM133.808 71.9513V70.7806H134.979V71.9513H133.808ZM133.808 73.1221V71.9513H134.979V73.1221H133.808ZM134.979 73.1221V71.9513H136.149V73.1221H134.979ZM134.979 71.9513V70.7806H136.149V71.9513H134.979ZM134.979 70.7806V69.6099H136.149V70.7806H134.979ZM136.149 70.7806V69.6099H137.32V70.7806H136.149ZM137.32 70.7806V69.6099H138.491V70.7806H137.32ZM138.491 70.7806V69.6099H139.662V70.7806H138.491ZM139.662 70.7806V69.6099H140.832V70.7806H139.662ZM140.832 70.7806V69.6099H142.003V70.7806H140.832ZM142.003 70.7806V69.6099H143.174V70.7806H142.003ZM143.174 70.7806V69.6099H144.345V70.7806H143.174ZM142.003 71.9513V70.7806H143.174V71.9513H142.003ZM140.832 71.9513V70.7806H142.003V71.9513H140.832ZM139.662 71.9513V70.7806H140.832V71.9513H139.662ZM138.491 71.9513V70.7806H139.662V71.9513H138.491ZM137.32 71.9513V70.7806H138.491V71.9513H137.32ZM136.149 71.9513V70.7806H137.32V71.9513H136.149ZM136.149 73.1221V71.9513H137.32V73.1221H136.149ZM137.32 73.1221V71.9513H138.491V73.1221H137.32ZM138.491 73.1221V71.9513H139.662V73.1221H138.491ZM139.662 73.1221V71.9513H140.832V73.1221H139.662ZM140.832 73.1221V71.9513H142.003V73.1221H140.832ZM142.003 73.1221V71.9513H143.174V73.1221H142.003ZM143.174 71.9513V70.7806H144.345V71.9513H143.174ZM144.345 71.9513V70.7806H145.515V71.9513H144.345ZM145.515 71.9513V70.7806H146.686V71.9513H145.515ZM145.515 73.1221V71.9513H146.686V73.1221H145.515ZM146.686 73.1221V71.9513H147.857V73.1221H146.686ZM146.686 74.2928V73.1221H147.857V74.2928H146.686ZM145.515 74.2928V73.1221H146.686V74.2928H145.515ZM144.345 74.2928V73.1221H145.515V74.2928H144.345ZM143.174 74.2928V73.1221H144.345V74.2928H143.174ZM142.003 74.2928V73.1221H143.174V74.2928H142.003ZM140.832 74.2928V73.1221H142.003V74.2928H140.832ZM139.662 74.2928V73.1221H140.832V74.2928H139.662ZM138.491 74.2928V73.1221H139.662V74.2928H138.491ZM137.32 74.2928V73.1221H138.491V74.2928H137.32ZM143.174 73.1221V71.9513H144.345V73.1221H143.174ZM144.345 73.1221V71.9513H145.515V73.1221H144.345ZM131.466 83.6586V82.4879H132.637V83.6586H131.466ZM132.637 83.6586V82.4879H133.808V83.6586H132.637ZM133.808 83.6586V82.4879H134.979V83.6586H133.808ZM134.979 83.6586V82.4879H136.149V83.6586H134.979ZM132.637 82.4879V81.3172H133.808V82.4879H132.637ZM133.808 82.4879V81.3172H134.979V82.4879H133.808ZM136.149 82.4879V81.3172H137.32V82.4879H136.149ZM137.32 82.4879V81.3172H138.491V82.4879H137.32ZM138.491 82.4879V81.3172H139.662V82.4879H138.491ZM139.662 82.4879V81.3172H140.832V82.4879H139.662ZM140.832 82.4879V81.3172H142.003V82.4879H140.832ZM142.003 82.4879V81.3172H143.174V82.4879H142.003ZM134.979 82.4879V81.3172H136.149V82.4879H134.979ZM131.466 82.4879V81.3172H132.637V82.4879H131.466ZM132.637 81.3172V80.1464H133.808V81.3172H132.637ZM133.808 81.3172V80.1464H134.979V81.3172H133.808ZM134.979 81.3172V80.1464H136.149V81.3172H134.979ZM136.149 81.3172V80.1464H137.32V81.3172H136.149ZM137.32 81.3172V80.1464H138.491V81.3172H137.32ZM138.491 81.3172V80.1464H139.662V81.3172H138.491ZM139.662 81.3172V80.1464H140.832V81.3172H139.662ZM140.832 81.3172V80.1464H142.003V81.3172H140.832ZM142.003 81.3172V80.1464H143.174V81.3172H142.003ZM142.003 80.1464V78.9757H143.174V80.1464H142.003ZM140.832 80.1464V78.9757H142.003V80.1464H140.832ZM139.662 80.1464V78.9757H140.832V80.1464H139.662ZM137.32 80.1464V78.9757H138.491V80.1464H137.32ZM136.149 80.1464V78.9757H137.32V80.1464H136.149ZM134.979 80.1464V78.9757H136.149V80.1464H134.979ZM138.491 80.1464V78.9757H139.662V80.1464H138.491ZM149.027 87.1708V88.3416H147.857V87.1708H149.027ZM149.027 88.3416V89.5123H147.857V88.3416H149.027ZM149.027 89.5123V90.683H147.857V89.5123H149.027ZM149.027 90.683V91.8538H147.857V90.683H149.027ZM147.857 90.683V91.8538H146.686V90.683H147.857ZM147.857 89.5123V90.683H146.686V89.5123H147.857ZM146.686 90.683V91.8538H145.515V90.683H146.686ZM145.515 90.683V91.8538H144.345V90.683H145.515ZM144.345 90.683V91.8538H143.174V90.683H144.345ZM143.174 86.0001V87.1708H142.003V86.0001H143.174ZM134.979 90.683V91.8538H133.808V90.683H134.979ZM137.32 82.4879V83.6586H136.149V82.4879H137.32ZM154.903 90.683V91.8538H153.732V90.683H154.903ZM154.903 89.5123V90.683H153.732V89.5123H154.903ZM154.903 88.3416V89.5123H153.732V88.3416H154.903ZM154.903 87.1708V88.3416H153.732V87.1708H154.903ZM154.903 86.0001V87.1708H153.732V86.0001H154.903ZM154.903 84.8294V86.0001H153.732V84.8294H154.903ZM154.903 83.6586V84.8294H153.732V83.6586H154.903ZM154.903 82.4879V83.6586H153.732V82.4879H154.903ZM154.903 81.3172V82.4879H153.732V81.3172H154.903ZM154.903 80.1464V81.3172H153.732V80.1464H154.903ZM154.903 78.9757V80.1464H153.732V78.9757H154.903ZM154.903 77.805V78.9757H153.732V77.805H154.903ZM154.903 76.6342V77.805H153.732V76.6342H154.903ZM154.903 75.4635V76.6342H153.732V75.4635H154.903ZM154.903 74.2928V75.4635H153.732V74.2928H154.903ZM156.074 74.2928V75.4635H154.903V74.2928H156.074ZM156.074 75.4635V76.6342H154.903V75.4635H156.074ZM156.074 76.6342V77.805H154.903V76.6342H156.074ZM156.074 77.805V78.9757H154.903V77.805H156.074ZM156.074 78.9757V80.1464H154.903V78.9757H156.074ZM156.074 80.1464V81.3172H154.903V80.1464H156.074ZM156.074 81.3172V82.4879H154.903V81.3172H156.074ZM157.244 82.4879V83.6586H156.074V82.4879H157.244ZM157.244 83.6586V84.8294H156.074V83.6586H157.244ZM157.244 84.8294V86.0001H156.074V84.8294H157.244ZM157.244 86.0001V87.1708H156.074V86.0001H157.244ZM157.244 87.1708V88.3416H156.074V87.1708H157.244ZM157.244 88.3416V89.5123H156.074V88.3416H157.244ZM157.244 89.5123V90.683H156.074V89.5123H157.244ZM157.244 90.683V91.8538H156.074V90.683H157.244ZM158.415 90.683V91.8538H157.244V90.683H158.415ZM159.586 90.683V91.8538H158.415V90.683H159.586ZM159.586 89.5123V90.683H158.415V89.5123H159.586ZM159.586 88.3416V89.5123H158.415V88.3416H159.586ZM159.586 87.1708V88.3416H158.415V87.1708H159.586ZM159.586 86.0001V87.1708H158.415V86.0001H159.586ZM159.586 84.8294V86.0001H158.415V84.8294H159.586ZM159.586 83.6586V84.8294H158.415V83.6586H159.586ZM159.586 82.4879V83.6586H158.415V82.4879H159.586ZM158.415 82.4879V83.6586H157.244V82.4879H158.415ZM158.415 81.3172V82.4879H157.244V81.3172H158.415ZM158.415 83.6586V84.8294H157.244V83.6586H158.415ZM158.415 84.8294V86.0001H157.244V84.8294H158.415ZM158.415 86.0001V87.1708H157.244V86.0001H158.415ZM158.415 87.1708V88.3416H157.244V87.1708H158.415ZM158.415 88.3416V89.5123H157.244V88.3416H158.415ZM158.415 89.5123V90.683H157.244V89.5123H158.415ZM156.074 90.683V91.8538H154.903V90.683H156.074ZM156.074 89.5123V90.683H154.903V89.5123H156.074ZM156.074 88.3416V89.5123H154.903V88.3416H156.074ZM156.074 87.1708V88.3416H154.903V87.1708H156.074ZM156.074 86.0001V87.1708H154.903V86.0001H156.074ZM156.074 84.8294V86.0001H154.903V84.8294H156.074ZM156.074 83.6586V84.8294H154.903V83.6586H156.074ZM156.074 82.4879V83.6586H154.903V82.4879H156.074ZM154.903 69.6099V70.7806H153.732V69.6099H154.903ZM154.903 70.7806V71.9513H153.732V70.7806H154.903ZM154.903 71.9513V73.1221H153.732V71.9513H154.903ZM154.903 73.1221V74.2928H153.732V73.1221H154.903ZM158.415 70.7806V71.9513H157.244V70.7806H158.415ZM158.415 71.9513V73.1221H157.244V71.9513H158.415ZM158.415 73.1221V74.2928H157.244V73.1221H158.415ZM158.415 74.2928V75.4635H157.244V74.2928H158.415ZM158.415 75.4635V76.6342H157.244V75.4635H158.415ZM158.415 76.6342V77.805H157.244V76.6342H158.415ZM158.415 77.805V78.9757H157.244V77.805H158.415ZM159.586 78.9757V80.1464H158.415V78.9757H159.586ZM159.586 80.1464V81.3172H158.415V80.1464H159.586ZM159.586 81.3172V82.4879H158.415V81.3172H159.586ZM159.586 77.805V78.9757H158.415V77.805H159.586ZM159.586 76.6342V77.805H158.415V76.6342H159.586ZM159.586 75.4635V76.6342H158.415V75.4635H159.586ZM159.586 74.2928V75.4635H158.415V74.2928H159.586ZM159.586 73.1221V74.2928H158.415V73.1221H159.586ZM159.586 71.9513V73.1221H158.415V71.9513H159.586ZM159.586 70.7806V71.9513H158.415V70.7806H159.586ZM159.586 69.6099V70.7806H158.415V69.6099H159.586ZM158.415 69.6099V70.7806H157.244V69.6099H158.415ZM157.244 69.6099V70.7806H156.074V69.6099H157.244ZM157.244 70.7806V71.9513H156.074V70.7806H157.244ZM156.074 71.9513V73.1221H154.903V71.9513H156.074ZM156.074 73.1221V74.2928H154.903V73.1221H156.074ZM156.074 70.7806V71.9513H154.903V70.7806H156.074ZM156.074 69.6099V70.7806H154.903V69.6099H156.074ZM157.244 71.9513V73.1221H156.074V71.9513H157.244ZM157.244 73.1221V74.2928H156.074V73.1221H157.244ZM157.244 74.2928V75.4635H156.074V74.2928H157.244ZM157.244 75.4635V76.6342H156.074V75.4635H157.244ZM157.244 76.6342V77.805H156.074V76.6342H157.244ZM157.244 77.805V78.9757H156.074V77.805H157.244ZM157.244 78.9757V80.1464H156.074V78.9757H157.244ZM157.244 80.1464V81.3172H156.074V80.1464H157.244ZM157.244 81.3172V82.4879H156.074V81.3172H157.244ZM158.415 80.1464V81.3172H157.244V80.1464H158.415ZM158.415 78.9757V80.1464H157.244V78.9757H158.415ZM167.781 90.683V91.8538H166.61V90.683H167.781ZM168.952 90.683V91.8538H167.781V90.683H168.952ZM170.122 90.683V91.8538H168.952V90.683H170.122ZM171.293 90.683V91.8538H170.122V90.683H171.293ZM172.464 89.5123V90.683H171.293V89.5123H172.464ZM172.464 88.3416V89.5123H171.293V88.3416H172.464ZM172.464 90.683V91.8538H171.293V90.683H172.464ZM171.293 89.5123V90.683H170.122V89.5123H171.293ZM170.122 89.5123V90.683H168.952V89.5123H170.122ZM168.952 89.5123V90.683H167.781V89.5123H168.952ZM167.781 89.5123V90.683H166.61V89.5123H167.781ZM167.781 88.3416V89.5123H166.61V88.3416H167.781ZM167.781 87.1708V88.3416H166.61V87.1708H167.781ZM168.952 87.1708V88.3416H167.781V87.1708H168.952ZM170.122 87.1708V88.3416H168.952V87.1708H170.122ZM171.293 87.1708V88.3416H170.122V87.1708H171.293ZM172.464 87.1708V88.3416H171.293V87.1708H172.464ZM171.293 88.3416V89.5123H170.122V88.3416H171.293ZM170.122 88.3416V89.5123H168.952V88.3416H170.122ZM168.952 88.3416V89.5123H167.781V88.3416H168.952ZM172.464 74.2928V75.4635H171.293V74.2928H172.464ZM171.293 74.2928V75.4635H170.122V74.2928H171.293ZM168.952 74.2928V75.4635H167.781V74.2928H168.952ZM168.952 75.4635V76.6342H167.781V75.4635H168.952ZM168.952 76.6342V77.805H167.781V76.6342H168.952ZM167.781 77.805V78.9757H166.61V77.805H167.781ZM167.781 78.9757V80.1464H166.61V78.9757H167.781ZM167.781 80.1464V81.3172H166.61V80.1464H167.781ZM167.781 81.3172V82.4879H166.61V81.3172H167.781ZM167.781 82.4879V83.6586H166.61V82.4879H167.781ZM167.781 83.6586V84.8294H166.61V83.6586H167.781ZM167.781 84.8294V86.0001H166.61V84.8294H167.781ZM167.781 86.0001V87.1708H166.61V86.0001H167.781ZM168.952 86.0001V87.1708H167.781V86.0001H168.952ZM170.122 86.0001V87.1708H168.952V86.0001H170.122ZM171.293 86.0001V87.1708H170.122V86.0001H171.293ZM172.464 86.0001V87.1708H171.293V86.0001H172.464ZM172.464 84.8294V86.0001H171.293V84.8294H172.464ZM172.464 82.4879V83.6586H171.293V82.4879H172.464ZM172.464 81.3172V82.4879H171.293V81.3172H172.464ZM172.464 80.1464V81.3172H171.293V80.1464H172.464ZM172.464 78.9757V80.1464H171.293V78.9757H172.464ZM172.464 77.805V78.9757H171.293V77.805H172.464ZM172.464 76.6342V77.805H171.293V76.6342H172.464ZM172.464 75.4635V76.6342H171.293V75.4635H172.464ZM171.293 80.1464V81.3172H170.122V80.1464H171.293ZM171.293 82.4879V83.6586H170.122V82.4879H171.293ZM171.293 83.6586V84.8294H170.122V83.6586H171.293ZM171.293 84.8294V86.0001H170.122V84.8294H171.293ZM172.464 83.6586V84.8294H171.293V83.6586H172.464ZM171.293 77.805V78.9757H170.122V77.805H171.293ZM170.122 77.805V78.9757H168.952V77.805H170.122ZM168.952 77.805V78.9757H167.781V77.805H168.952ZM168.952 78.9757V80.1464H167.781V78.9757H168.952ZM168.952 80.1464V81.3172H167.781V80.1464H168.952ZM168.952 81.3172V82.4879H167.781V81.3172H168.952ZM168.952 82.4879V83.6586H167.781V82.4879H168.952ZM168.952 83.6586V84.8294H167.781V83.6586H168.952ZM168.952 84.8294V86.0001H167.781V84.8294H168.952ZM170.122 84.8294V86.0001H168.952V84.8294H170.122ZM170.122 83.6586V84.8294H168.952V83.6586H170.122ZM170.122 82.4879V83.6586H168.952V82.4879H170.122ZM170.122 81.3172V82.4879H168.952V81.3172H170.122ZM170.122 80.1464V81.3172H168.952V80.1464H170.122ZM170.122 78.9757V80.1464H168.952V78.9757H170.122ZM171.293 78.9757V80.1464H170.122V78.9757H171.293ZM171.293 81.3172V82.4879H170.122V81.3172H171.293ZM171.293 76.6342V77.805H170.122V76.6342H171.293ZM171.293 75.4635V76.6342H170.122V75.4635H171.293ZM170.122 75.4635V76.6342H168.952V75.4635H170.122ZM170.122 76.6342V77.805H168.952V76.6342H170.122ZM167.781 76.6342V77.805H166.61V76.6342H167.781ZM167.781 75.4635V76.6342H166.61V75.4635H167.781ZM167.781 74.2928V75.4635H166.61V74.2928H167.781ZM170.122 74.2928V75.4635H168.952V74.2928H170.122ZM167.781 69.6099V70.7806H166.61V69.6099H167.781ZM167.781 70.7806V71.9513H166.61V70.7806H167.781ZM168.952 70.7806V71.9513H167.781V70.7806H168.952ZM170.122 70.7806V71.9513H168.952V70.7806H170.122ZM170.122 71.9513V73.1221H168.952V71.9513H170.122ZM171.293 71.9513V73.1221H170.122V71.9513H171.293ZM171.293 73.1221V74.2928H170.122V73.1221H171.293ZM170.122 73.1221V74.2928H168.952V73.1221H170.122ZM168.952 73.1221V74.2928H167.781V73.1221H168.952ZM168.952 71.9513V73.1221H167.781V71.9513H168.952ZM167.781 71.9513V73.1221H166.61V71.9513H167.781ZM166.61 71.9513V73.1221H165.439V71.9513H166.61ZM166.61 73.1221V74.2928H165.439V73.1221H166.61ZM167.781 73.1221V74.2928H166.61V73.1221H167.781ZM166.61 74.2928V75.4635H165.439V74.2928H166.61ZM165.439 73.1221V74.2928H164.269V73.1221H165.439ZM165.439 71.9513V73.1221H164.269V71.9513H165.439ZM165.439 70.7806V71.9513H164.269V70.7806H165.439ZM165.439 69.6099V70.7806H164.269V69.6099H165.439ZM166.61 69.6099V70.7806H165.439V69.6099H166.61ZM166.61 70.7806V71.9513H165.439V70.7806H166.61ZM164.269 69.6099V70.7806H163.098V69.6099H164.269ZM164.269 70.7806V71.9513H163.098V70.7806H164.269ZM164.269 71.9513V73.1221H163.098V71.9513H164.269ZM164.269 73.1221V74.2928H163.098V73.1221H164.269ZM163.098 69.6099V70.7806H161.927V69.6099H163.098ZM163.098 70.7806V71.9513H161.927V70.7806H163.098ZM161.927 70.7806V71.9513H160.756V70.7806H161.927ZM161.927 71.9513V73.1221H160.756V71.9513H161.927ZM160.756 71.9513V73.1221H159.586V71.9513H160.756ZM160.756 73.1221V74.2928H159.586V73.1221H160.756ZM161.927 73.1221V74.2928H160.756V73.1221H161.927ZM163.098 73.1221V74.2928H161.927V73.1221H163.098ZM163.098 71.9513V73.1221H161.927V71.9513H163.098ZM160.756 74.2928V75.4635H159.586V74.2928H160.756ZM161.927 69.6099V70.7806H160.756V69.6099H161.927ZM160.756 70.7806V71.9513H159.586V70.7806H160.756ZM187.705 73.1221V74.2928H186.534V73.1221H187.705ZM187.705 71.9513V73.1221H186.534V71.9513H187.705ZM187.705 70.7806V71.9513H186.534V70.7806H187.705ZM186.534 70.7806V71.9513H185.364V70.7806H186.534ZM186.534 69.6099V70.7806H185.364V69.6099H186.534ZM186.534 71.9513V73.1221H185.364V71.9513H186.534ZM185.364 71.9513V73.1221H184.193V71.9513H185.364ZM185.364 73.1221V74.2928H184.193V73.1221H185.364ZM186.534 73.1221V74.2928H185.364V73.1221H186.534ZM184.193 73.1221V74.2928H183.022V73.1221H184.193ZM184.193 71.9513V73.1221H183.022V71.9513H184.193ZM184.193 70.7806V71.9513H183.022V70.7806H184.193ZM184.193 69.6099V70.7806H183.022V69.6099H184.193ZM185.364 69.6099V70.7806H184.193V69.6099H185.364ZM185.364 70.7806V71.9513H184.193V70.7806H185.364ZM183.022 69.6099V70.7806H181.851V69.6099H183.022ZM181.851 69.6099V70.7806H180.681V69.6099H181.851ZM180.681 69.6099V70.7806H179.51V69.6099H180.681ZM180.681 70.7806V71.9513H179.51V70.7806H180.681ZM180.681 71.9513V73.1221H179.51V71.9513H180.681ZM180.681 73.1221V74.2928H179.51V73.1221H180.681ZM181.851 73.1221V74.2928H180.681V73.1221H181.851ZM183.022 73.1221V74.2928H181.851V73.1221H183.022ZM183.022 71.9513V73.1221H181.851V71.9513H183.022ZM183.022 70.7806V71.9513H181.851V70.7806H183.022ZM181.851 70.7806V71.9513H180.681V70.7806H181.851ZM181.851 71.9513V73.1221H180.681V71.9513H181.851ZM179.51 71.9513V73.1221H178.339V71.9513H179.51ZM179.51 70.7806V71.9513H178.339V70.7806H179.51ZM178.339 70.7806V71.9513H177.168V70.7806H178.339ZM178.339 71.9513V73.1221H177.168V71.9513H178.339ZM177.168 71.9513V73.1221H175.998V71.9513H177.168ZM177.168 73.1221V74.2928H175.998V73.1221H177.168ZM177.168 74.2928V75.4635H175.998V74.2928H177.168ZM178.339 74.2928V75.4635H177.168V74.2928H178.339ZM178.339 73.1221V74.2928H177.168V73.1221H178.339ZM179.51 73.1221V74.2928H178.339V73.1221H179.51ZM179.51 74.2928V75.4635H178.339V74.2928H179.51ZM180.681 74.2928V75.4635H179.51V74.2928H180.681ZM181.851 74.2928V75.4635H180.681V74.2928H181.851ZM175.998 74.2928V75.4635H174.827V74.2928H175.998ZM175.998 75.4635V76.6342H174.827V75.4635H175.998ZM175.998 76.6342V77.805H174.827V76.6342H175.998ZM175.998 77.805V78.9757H174.827V77.805H175.998ZM175.998 78.9757V80.1464H174.827V78.9757H175.998ZM175.998 80.1464V81.3172H174.827V80.1464H175.998ZM175.998 81.3172V82.4879H174.827V81.3172H175.998ZM175.998 82.4879V83.6586H174.827V82.4879H175.998ZM175.998 83.6586V84.8294H174.827V83.6586H175.998ZM175.998 84.8294V86.0001H174.827V84.8294H175.998ZM177.168 84.8294V86.0001H175.998V84.8294H177.168ZM177.168 86.0001V87.1708H175.998V86.0001H177.168ZM175.998 86.0001V87.1708H174.827V86.0001H175.998ZM178.339 86.0001V87.1708H177.168V86.0001H178.339ZM179.51 86.0001V87.1708H178.339V86.0001H179.51ZM180.681 86.0001V87.1708H179.51V86.0001H180.681ZM181.851 86.0001V87.1708H180.681V86.0001H181.851ZM180.681 84.8294V86.0001H179.51V84.8294H180.681ZM180.681 83.6586V84.8294H179.51V83.6586H180.681ZM180.681 82.4879V83.6586H179.51V82.4879H180.681ZM180.681 81.3172V82.4879H179.51V81.3172H180.681ZM180.681 80.1464V81.3172H179.51V80.1464H180.681ZM180.681 78.9757V80.1464H179.51V78.9757H180.681ZM180.681 77.805V78.9757H179.51V77.805H180.681ZM180.681 76.6342V77.805H179.51V76.6342H180.681ZM180.681 75.4635V76.6342H179.51V75.4635H180.681ZM179.51 75.4635V76.6342H178.339V75.4635H179.51ZM178.339 75.4635V76.6342H177.168V75.4635H178.339ZM177.168 75.4635V76.6342H175.998V75.4635H177.168ZM177.168 76.6342V77.805H175.998V76.6342H177.168ZM177.168 77.805V78.9757H175.998V77.805H177.168ZM177.168 78.9757V80.1464H175.998V78.9757H177.168ZM177.168 80.1464V81.3172H175.998V80.1464H177.168ZM177.168 81.3172V82.4879H175.998V81.3172H177.168ZM177.168 82.4879V83.6586H175.998V82.4879H177.168ZM177.168 83.6586V84.8294H175.998V83.6586H177.168ZM178.339 84.8294V86.0001H177.168V84.8294H178.339ZM179.51 84.8294V86.0001H178.339V84.8294H179.51ZM179.51 83.6586V84.8294H178.339V83.6586H179.51ZM179.51 82.4879V83.6586H178.339V82.4879H179.51ZM179.51 81.3172V82.4879H178.339V81.3172H179.51ZM179.51 80.1464V81.3172H178.339V80.1464H179.51ZM178.339 80.1464V81.3172H177.168V80.1464H178.339ZM178.339 78.9757V80.1464H177.168V78.9757H178.339ZM178.339 77.805V78.9757H177.168V77.805H178.339ZM178.339 76.6342V77.805H177.168V76.6342H178.339ZM179.51 76.6342V77.805H178.339V76.6342H179.51ZM179.51 77.805V78.9757H178.339V77.805H179.51ZM179.51 78.9757V80.1464H178.339V78.9757H179.51ZM178.339 82.4879V83.6586H177.168V82.4879H178.339ZM178.339 83.6586V84.8294H177.168V83.6586H178.339ZM178.339 81.3172V82.4879H177.168V81.3172H178.339ZM187.705 87.1708V88.3416H186.534V87.1708H187.705ZM186.534 90.683V91.8538H185.364V90.683H186.534ZM185.364 90.683V91.8538H184.193V90.683H185.364ZM184.193 90.683V91.8538H183.022V90.683H184.193ZM183.022 90.683V91.8538H181.851V90.683H183.022ZM181.851 90.683V91.8538H180.681V90.683H181.851ZM180.681 90.683V91.8538H179.51V90.683H180.681ZM181.851 89.5123V90.683H180.681V89.5123H181.851ZM183.022 89.5123V90.683H181.851V89.5123H183.022ZM184.193 89.5123V90.683H183.022V89.5123H184.193ZM185.364 89.5123V90.683H184.193V89.5123H185.364ZM186.534 89.5123V90.683H185.364V89.5123H186.534ZM187.705 89.5123V90.683H186.534V89.5123H187.705ZM187.705 88.3416V89.5123H186.534V88.3416H187.705ZM186.534 88.3416V89.5123H185.364V88.3416H186.534ZM185.364 88.3416V89.5123H184.193V88.3416H185.364ZM184.193 88.3416V89.5123H183.022V88.3416H184.193ZM183.022 88.3416V89.5123H181.851V88.3416H183.022ZM181.851 88.3416V89.5123H180.681V88.3416H181.851ZM180.681 89.5123V90.683H179.51V89.5123H180.681ZM179.51 89.5123V90.683H178.339V89.5123H179.51ZM178.339 89.5123V90.683H177.168V89.5123H178.339ZM178.339 88.3416V89.5123H177.168V88.3416H178.339ZM177.168 88.3416V89.5123H175.998V88.3416H177.168ZM177.168 87.1708V88.3416H175.998V87.1708H177.168ZM178.339 87.1708V88.3416H177.168V87.1708H178.339ZM179.51 87.1708V88.3416H178.339V87.1708H179.51ZM180.681 87.1708V88.3416H179.51V87.1708H180.681ZM181.851 87.1708V88.3416H180.681V87.1708H181.851ZM183.022 87.1708V88.3416H181.851V87.1708H183.022ZM184.193 87.1708V88.3416H183.022V87.1708H184.193ZM185.364 87.1708V88.3416H184.193V87.1708H185.364ZM186.534 87.1708V88.3416H185.364V87.1708H186.534ZM180.681 88.3416V89.5123H179.51V88.3416H180.681ZM179.51 88.3416V89.5123H178.339V88.3416H179.51ZM188.876 88.3416V89.5123H187.705V88.3416H188.876ZM188.876 87.1708V88.3416H187.705V87.1708H188.876ZM188.876 86.0001V87.1708H187.705V86.0001H188.876ZM188.876 84.8294V86.0001H187.705V84.8294H188.876ZM188.876 83.6586V84.8294H187.705V83.6586H188.876ZM188.876 82.4879V83.6586H187.705V82.4879H188.876ZM188.876 81.3172V82.4879H187.705V81.3172H188.876ZM188.876 80.1464V81.3172H187.705V80.1464H188.876ZM188.876 78.9757V80.1464H187.705V78.9757H188.876ZM188.876 77.805V78.9757H187.705V77.805H188.876ZM188.876 76.6342V77.805H187.705V76.6342H188.876ZM188.876 75.4635V76.6342H187.705V75.4635H188.876ZM188.876 74.2928V75.4635H187.705V74.2928H188.876ZM190.046 74.2928V75.4635H188.876V74.2928H190.046ZM190.046 75.4635V76.6342H188.876V75.4635H190.046ZM190.046 76.6342V77.805H188.876V76.6342H190.046ZM190.046 77.805V78.9757H188.876V77.805H190.046ZM190.046 78.9757V80.1464H188.876V78.9757H190.046ZM190.046 80.1464V81.3172H188.876V80.1464H190.046ZM190.046 81.3172V82.4879H188.876V81.3172H190.046ZM191.217 82.4879V83.6586H190.046V82.4879H191.217ZM191.217 83.6586V84.8294H190.046V83.6586H191.217ZM191.217 84.8294V86.0001H190.046V84.8294H191.217ZM191.217 86.0001V87.1708H190.046V86.0001H191.217ZM191.217 87.1708V88.3416H190.046V87.1708H191.217ZM191.217 88.3416V89.5123H190.046V88.3416H191.217ZM191.217 89.5123V90.683H190.046V89.5123H191.217ZM191.217 90.683V91.8538H190.046V90.683H191.217ZM192.388 90.683V91.8538H191.217V90.683H192.388ZM193.559 90.683V91.8538H192.388V90.683H193.559ZM193.559 89.5123V90.683H192.388V89.5123H193.559ZM193.559 88.3416V89.5123H192.388V88.3416H193.559ZM193.559 87.1708V88.3416H192.388V87.1708H193.559ZM193.559 86.0001V87.1708H192.388V86.0001H193.559ZM193.559 84.8294V86.0001H192.388V84.8294H193.559ZM193.559 83.6586V84.8294H192.388V83.6586H193.559ZM193.559 82.4879V83.6586H192.388V82.4879H193.559ZM192.388 82.4879V83.6586H191.217V82.4879H192.388ZM192.388 81.3172V82.4879H191.217V81.3172H192.388ZM192.388 83.6586V84.8294H191.217V83.6586H192.388ZM192.388 84.8294V86.0001H191.217V84.8294H192.388ZM192.388 86.0001V87.1708H191.217V86.0001H192.388ZM192.388 87.1708V88.3416H191.217V87.1708H192.388ZM192.388 88.3416V89.5123H191.217V88.3416H192.388ZM192.388 89.5123V90.683H191.217V89.5123H192.388ZM190.046 88.3416V89.5123H188.876V88.3416H190.046ZM190.046 87.1708V88.3416H188.876V87.1708H190.046ZM190.046 86.0001V87.1708H188.876V86.0001H190.046ZM190.046 84.8294V86.0001H188.876V84.8294H190.046ZM190.046 83.6586V84.8294H188.876V83.6586H190.046ZM190.046 82.4879V83.6586H188.876V82.4879H190.046ZM188.876 62.5855V63.7562H187.705V62.5855H188.876ZM188.876 63.7562V64.9269H187.705V63.7562H188.876ZM188.876 64.9269V66.0977H187.705V64.9269H188.876ZM188.876 66.0977V67.2684H187.705V66.0977H188.876ZM188.876 67.2684V68.4391H187.705V67.2684H188.876ZM188.876 68.4391V69.6099H187.705V68.4391H188.876ZM188.876 70.7806V71.9513H187.705V70.7806H188.876ZM188.876 73.1221V74.2928H187.705V73.1221H188.876ZM192.388 62.5855V63.7562H191.217V62.5855H192.388ZM192.388 63.7562V64.9269H191.217V63.7562H192.388ZM192.388 64.9269V66.0977H191.217V64.9269H192.388ZM192.388 66.0977V67.2684H191.217V66.0977H192.388ZM192.388 67.2684V68.4391H191.217V67.2684H192.388ZM192.388 68.4391V69.6099H191.217V68.4391H192.388ZM192.388 70.7806V71.9513H191.217V70.7806H192.388ZM192.388 71.9513V73.1221H191.217V71.9513H192.388ZM192.388 73.1221V74.2928H191.217V73.1221H192.388ZM192.388 75.4635V76.6342H191.217V75.4635H192.388ZM192.388 76.6342V77.805H191.217V76.6342H192.388ZM192.388 77.805V78.9757H191.217V77.805H192.388ZM193.559 78.9757V80.1464H192.388V78.9757H193.559ZM193.559 80.1464V81.3172H192.388V80.1464H193.559ZM193.559 81.3172V82.4879H192.388V81.3172H193.559ZM193.559 77.805V78.9757H192.388V77.805H193.559ZM193.559 76.6342V77.805H192.388V76.6342H193.559ZM193.559 74.2928V75.4635H192.388V74.2928H193.559ZM193.559 73.1221V74.2928H192.388V73.1221H193.559ZM193.559 71.9513V73.1221H192.388V71.9513H193.559ZM193.559 70.7806V71.9513H192.388V70.7806H193.559ZM193.559 69.6099V70.7806H192.388V69.6099H193.559ZM193.559 68.4391V69.6099H192.388V68.4391H193.559ZM193.559 67.2684V68.4391H192.388V67.2684H193.559ZM192.388 69.6099V70.7806H191.217V69.6099H192.388ZM193.559 66.0977V67.2684H192.388V66.0977H193.559ZM193.559 64.9269V66.0977H192.388V64.9269H193.559ZM193.559 63.7562V64.9269H192.388V63.7562H193.559ZM193.559 62.5855V63.7562H192.388V62.5855H193.559ZM191.217 62.5855V63.7562H190.046V62.5855H191.217ZM190.046 62.5855V63.7562H188.876V62.5855H190.046ZM190.046 63.7562V64.9269H188.876V63.7562H190.046ZM191.217 63.7562V64.9269H190.046V63.7562H191.217ZM191.217 64.9269V66.0977H190.046V64.9269H191.217ZM191.217 66.0977V67.2684H190.046V66.0977H191.217ZM191.217 67.2684V68.4391H190.046V67.2684H191.217ZM191.217 68.4391V69.6099H190.046V68.4391H191.217ZM191.217 69.6099V70.7806H190.046V69.6099H191.217ZM191.217 70.7806V71.9513H190.046V70.7806H191.217ZM190.046 71.9513V73.1221H188.876V71.9513H190.046ZM190.046 73.1221V74.2928H188.876V73.1221H190.046ZM190.046 70.7806V71.9513H188.876V70.7806H190.046ZM190.046 69.6099V70.7806H188.876V69.6099H190.046ZM190.046 68.4391V69.6099H188.876V68.4391H190.046ZM190.046 67.2684V68.4391H188.876V67.2684H190.046ZM190.046 66.0977V67.2684H188.876V66.0977H190.046ZM190.046 64.9269V66.0977H188.876V64.9269H190.046ZM191.217 73.1221V74.2928H190.046V73.1221H191.217ZM191.217 75.4635V76.6342H190.046V75.4635H191.217ZM191.217 76.6342V77.805H190.046V76.6342H191.217ZM191.217 77.805V78.9757H190.046V77.805H191.217ZM191.217 78.9757V80.1464H190.046V78.9757H191.217ZM191.217 80.1464V81.3172H190.046V80.1464H191.217ZM191.217 81.3172V82.4879H190.046V81.3172H191.217ZM192.388 80.1464V81.3172H191.217V80.1464H192.388ZM192.388 78.9757V80.1464H191.217V78.9757H192.388ZM188.876 69.6099V70.7806H187.705V69.6099H188.876ZM193.559 75.4635V76.6342H192.388V75.4635H193.559ZM188.876 71.9513V73.1221H187.705V71.9513H188.876ZM191.217 71.9513V73.1221H190.046V71.9513H191.217ZM191.217 74.2928V75.4635H190.046V74.2928H191.217ZM192.388 74.2928V75.4635H191.217V74.2928H192.388ZM188.876 89.5123V90.683H187.705V89.5123H188.876ZM190.046 89.5123V90.683H188.876V89.5123H190.046ZM190.046 90.683V91.8538H188.876V90.683H190.046ZM187.705 69.6099V70.7806H186.534V69.6099H187.705ZM187.705 86.0001V87.1708H186.534V86.0001H187.705ZM188.876 90.683V91.8538H187.705V90.683H188.876ZM211.141 76.6342V77.805H209.971V76.6342H211.141ZM212.312 76.6342V77.805H211.141V76.6342H212.312ZM213.483 76.6342V77.805H212.312V76.6342H213.483ZM214.654 76.6342V77.805H213.483V76.6342H214.654ZM215.824 76.6342V77.805H214.654V76.6342H215.824ZM215.824 75.4635V76.6342H214.654V75.4635H215.824ZM215.824 74.2928V75.4635H214.654V74.2928H215.824ZM214.654 74.2928V75.4635H213.483V74.2928H214.654ZM213.483 74.2928V75.4635H212.312V74.2928H213.483ZM212.312 74.2928V75.4635H211.141V74.2928H212.312ZM212.312 75.4635V76.6342H211.141V75.4635H212.312ZM211.141 75.4635V76.6342H209.971V75.4635H211.141ZM213.483 75.4635V76.6342H212.312V75.4635H213.483ZM214.654 75.4635V76.6342H213.483V75.4635H214.654ZM211.141 74.2928V75.4635H209.971V74.2928H211.141ZM209.971 74.2928V75.4635H208.8V74.2928H209.971ZM209.971 73.1221V74.2928H208.8V73.1221H209.971ZM211.141 73.1221V74.2928H209.971V73.1221H211.141ZM212.312 73.1221V74.2928H211.141V73.1221H212.312ZM213.483 73.1221V74.2928H212.312V73.1221H213.483ZM214.654 73.1221V74.2928H213.483V73.1221H214.654ZM214.654 71.9513V73.1221H213.483V71.9513H214.654ZM213.483 71.9513V73.1221H212.312V71.9513H213.483ZM212.312 71.9513V73.1221H211.141V71.9513H212.312ZM211.141 71.9513V73.1221H209.971V71.9513H211.141ZM209.971 71.9513V73.1221H208.8V71.9513H209.971ZM212.312 70.7806V71.9513H211.141V70.7806H212.312ZM213.483 70.7806V71.9513H212.312V70.7806H213.483ZM211.141 70.7806V71.9513H209.971V70.7806H211.141ZM211.141 69.6099V70.7806H209.971V69.6099H211.141ZM209.971 69.6099V70.7806H208.8V69.6099H209.971ZM209.971 70.7806V71.9513H208.8V70.7806H209.971ZM208.8 70.7806V71.9513H207.629V70.7806H208.8ZM208.8 69.6099V70.7806H207.629V69.6099H208.8ZM208.8 71.9513V73.1221H207.629V71.9513H208.8ZM207.629 71.9513V73.1221H206.458V71.9513H207.629ZM207.629 73.1221V74.2928H206.458V73.1221H207.629ZM208.8 73.1221V74.2928H207.629V73.1221H208.8ZM206.458 73.1221V74.2928H205.288V73.1221H206.458ZM206.458 71.9513V73.1221H205.288V71.9513H206.458ZM206.458 70.7806V71.9513H205.288V70.7806H206.458ZM206.458 69.6099V70.7806H205.288V69.6099H206.458ZM207.629 69.6099V70.7806H206.458V69.6099H207.629ZM207.629 70.7806V71.9513H206.458V70.7806H207.629ZM205.288 69.6099V70.7806H204.117V69.6099H205.288ZM204.117 69.6099V70.7806H202.946V69.6099H204.117ZM202.946 69.6099V70.7806H201.776V69.6099H202.946ZM202.946 70.7806V71.9513H201.776V70.7806H202.946ZM202.946 71.9513V73.1221H201.776V71.9513H202.946ZM202.946 73.1221V74.2928H201.776V73.1221H202.946ZM204.117 73.1221V74.2928H202.946V73.1221H204.117ZM205.288 73.1221V74.2928H204.117V73.1221H205.288ZM205.288 71.9513V73.1221H204.117V71.9513H205.288ZM205.288 70.7806V71.9513H204.117V70.7806H205.288ZM204.117 70.7806V71.9513H202.946V70.7806H204.117ZM204.117 71.9513V73.1221H202.946V71.9513H204.117ZM201.776 71.9513V73.1221H200.605V71.9513H201.776ZM201.776 70.7806V71.9513H200.605V70.7806H201.776ZM200.605 70.7806V71.9513H199.434V70.7806H200.605ZM200.605 71.9513V73.1221H199.434V71.9513H200.605ZM199.434 71.9513V73.1221H198.263V71.9513H199.434ZM199.434 73.1221V74.2928H198.263V73.1221H199.434ZM199.434 74.2928V75.4635H198.263V74.2928H199.434ZM200.605 74.2928V75.4635H199.434V74.2928H200.605ZM200.605 73.1221V74.2928H199.434V73.1221H200.605ZM201.776 73.1221V74.2928H200.605V73.1221H201.776ZM201.776 74.2928V75.4635H200.605V74.2928H201.776ZM202.946 74.2928V75.4635H201.776V74.2928H202.946ZM204.117 74.2928V75.4635H202.946V74.2928H204.117ZM198.263 74.2928V75.4635H197.093V74.2928H198.263ZM198.263 75.4635V76.6342H197.093V75.4635H198.263ZM198.263 76.6342V77.805H197.093V76.6342H198.263ZM198.263 77.805V78.9757H197.093V77.805H198.263ZM198.263 78.9757V80.1464H197.093V78.9757H198.263ZM198.263 80.1464V81.3172H197.093V80.1464H198.263ZM198.263 81.3172V82.4879H197.093V81.3172H198.263ZM198.263 82.4879V83.6586H197.093V82.4879H198.263ZM198.263 83.6586V84.8294H197.093V83.6586H198.263ZM198.263 84.8294V86.0001H197.093V84.8294H198.263ZM199.434 84.8294V86.0001H198.263V84.8294H199.434ZM199.434 86.0001V87.1708H198.263V86.0001H199.434ZM198.263 86.0001V87.1708H197.093V86.0001H198.263ZM200.605 86.0001V87.1708H199.434V86.0001H200.605ZM201.776 86.0001V87.1708H200.605V86.0001H201.776ZM202.946 86.0001V87.1708H201.776V86.0001H202.946ZM204.117 86.0001V87.1708H202.946V86.0001H204.117ZM202.946 84.8294V86.0001H201.776V84.8294H202.946ZM202.946 83.6586V84.8294H201.776V83.6586H202.946ZM202.946 82.4879V83.6586H201.776V82.4879H202.946ZM202.946 81.3172V82.4879H201.776V81.3172H202.946ZM202.946 80.1464V81.3172H201.776V80.1464H202.946ZM202.946 78.9757V80.1464H201.776V78.9757H202.946ZM202.946 77.805V78.9757H201.776V77.805H202.946ZM202.946 76.6342V77.805H201.776V76.6342H202.946ZM202.946 75.4635V76.6342H201.776V75.4635H202.946ZM201.776 75.4635V76.6342H200.605V75.4635H201.776ZM200.605 75.4635V76.6342H199.434V75.4635H200.605ZM199.434 75.4635V76.6342H198.263V75.4635H199.434ZM199.434 76.6342V77.805H198.263V76.6342H199.434ZM199.434 77.805V78.9757H198.263V77.805H199.434ZM199.434 78.9757V80.1464H198.263V78.9757H199.434ZM199.434 80.1464V81.3172H198.263V80.1464H199.434ZM199.434 81.3172V82.4879H198.263V81.3172H199.434ZM199.434 82.4879V83.6586H198.263V82.4879H199.434ZM199.434 83.6586V84.8294H198.263V83.6586H199.434ZM200.605 84.8294V86.0001H199.434V84.8294H200.605ZM201.776 84.8294V86.0001H200.605V84.8294H201.776ZM201.776 83.6586V84.8294H200.605V83.6586H201.776ZM201.776 82.4879V83.6586H200.605V82.4879H201.776ZM201.776 81.3172V82.4879H200.605V81.3172H201.776ZM201.776 80.1464V81.3172H200.605V80.1464H201.776ZM200.605 80.1464V81.3172H199.434V80.1464H200.605ZM200.605 78.9757V80.1464H199.434V78.9757H200.605ZM200.605 77.805V78.9757H199.434V77.805H200.605ZM200.605 76.6342V77.805H199.434V76.6342H200.605ZM201.776 76.6342V77.805H200.605V76.6342H201.776ZM201.776 77.805V78.9757H200.605V77.805H201.776ZM201.776 78.9757V80.1464H200.605V78.9757H201.776ZM200.605 82.4879V83.6586H199.434V82.4879H200.605ZM200.605 83.6586V84.8294H199.434V83.6586H200.605ZM200.605 81.3172V82.4879H199.434V81.3172H200.605ZM211.141 83.6586V84.8294H209.971V83.6586H211.141ZM211.141 84.8294V86.0001H209.971V84.8294H211.141ZM212.312 84.8294V86.0001H211.141V84.8294H212.312ZM213.483 84.8294V86.0001H212.312V84.8294H213.483ZM214.654 84.8294V86.0001H213.483V84.8294H214.654ZM215.824 84.8294V86.0001H214.654V84.8294H215.824ZM215.824 83.6586V84.8294H214.654V83.6586H215.824ZM214.654 83.6586V84.8294H213.483V83.6586H214.654ZM213.483 83.6586V84.8294H212.312V83.6586H213.483ZM212.312 83.6586V84.8294H211.141V83.6586H212.312ZM215.824 86.0001V87.1708H214.654V86.0001H215.824ZM214.654 86.0001V87.1708H213.483V86.0001H214.654ZM213.483 86.0001V87.1708H212.312V86.0001H213.483ZM212.312 86.0001V87.1708H211.141V86.0001H212.312ZM211.141 86.0001V87.1708H209.971V86.0001H211.141ZM209.971 86.0001V87.1708H208.8V86.0001H209.971ZM209.971 87.1708V88.3416H208.8V87.1708H209.971ZM211.141 87.1708V88.3416H209.971V87.1708H211.141ZM212.312 87.1708V88.3416H211.141V87.1708H212.312ZM213.483 87.1708V88.3416H212.312V87.1708H213.483ZM213.483 88.3416V89.5123H212.312V88.3416H213.483ZM214.654 88.3416V89.5123H213.483V88.3416H214.654ZM214.654 87.1708V88.3416H213.483V87.1708H214.654ZM213.483 89.5123V90.683H212.312V89.5123H213.483ZM212.312 89.5123V90.683H211.141V89.5123H212.312ZM212.312 88.3416V89.5123H211.141V88.3416H212.312ZM211.141 88.3416V89.5123H209.971V88.3416H211.141ZM211.141 89.5123V90.683H209.971V89.5123H211.141ZM211.141 90.683V91.8538H209.971V90.683H211.141ZM209.971 90.683V91.8538H208.8V90.683H209.971ZM208.8 90.683V91.8538H207.629V90.683H208.8ZM207.629 90.683V91.8538H206.458V90.683H207.629ZM206.458 90.683V91.8538H205.288V90.683H206.458ZM205.288 90.683V91.8538H204.117V90.683H205.288ZM204.117 90.683V91.8538H202.946V90.683H204.117ZM202.946 90.683V91.8538H201.776V90.683H202.946ZM204.117 89.5123V90.683H202.946V89.5123H204.117ZM205.288 89.5123V90.683H204.117V89.5123H205.288ZM206.458 89.5123V90.683H205.288V89.5123H206.458ZM207.629 89.5123V90.683H206.458V89.5123H207.629ZM208.8 89.5123V90.683H207.629V89.5123H208.8ZM209.971 89.5123V90.683H208.8V89.5123H209.971ZM209.971 88.3416V89.5123H208.8V88.3416H209.971ZM208.8 88.3416V89.5123H207.629V88.3416H208.8ZM207.629 88.3416V89.5123H206.458V88.3416H207.629ZM206.458 88.3416V89.5123H205.288V88.3416H206.458ZM205.288 88.3416V89.5123H204.117V88.3416H205.288ZM204.117 88.3416V89.5123H202.946V88.3416H204.117ZM202.946 89.5123V90.683H201.776V89.5123H202.946ZM201.776 89.5123V90.683H200.605V89.5123H201.776ZM200.605 89.5123V90.683H199.434V89.5123H200.605ZM200.605 88.3416V89.5123H199.434V88.3416H200.605ZM199.434 88.3416V89.5123H198.263V88.3416H199.434ZM199.434 87.1708V88.3416H198.263V87.1708H199.434ZM200.605 87.1708V88.3416H199.434V87.1708H200.605ZM201.776 87.1708V88.3416H200.605V87.1708H201.776ZM202.946 87.1708V88.3416H201.776V87.1708H202.946ZM204.117 87.1708V88.3416H202.946V87.1708H204.117ZM205.288 87.1708V88.3416H204.117V87.1708H205.288ZM206.458 87.1708V88.3416H205.288V87.1708H206.458ZM207.629 87.1708V88.3416H206.458V87.1708H207.629ZM208.8 87.1708V88.3416H207.629V87.1708H208.8ZM202.946 88.3416V89.5123H201.776V88.3416H202.946ZM201.776 88.3416V89.5123H200.605V88.3416H201.776ZM211.141 77.805V78.9757H209.971V77.805H211.141ZM211.141 78.9757V80.1464H209.971V78.9757H211.141ZM212.312 78.9757V80.1464H211.141V78.9757H212.312ZM213.483 78.9757V80.1464H212.312V78.9757H213.483ZM214.654 78.9757V80.1464H213.483V78.9757H214.654ZM215.824 78.9757V80.1464H214.654V78.9757H215.824ZM215.824 77.805V78.9757H214.654V77.805H215.824ZM214.654 77.805V78.9757H213.483V77.805H214.654ZM213.483 77.805V78.9757H212.312V77.805H213.483ZM212.312 77.805V78.9757H211.141V77.805H212.312ZM212.312 80.1464V81.3172H211.141V80.1464H212.312ZM213.483 80.1464V81.3172H212.312V80.1464H213.483ZM213.483 81.3172V82.4879H212.312V81.3172H213.483ZM214.654 81.3172V82.4879H213.483V81.3172H214.654ZM214.654 80.1464V81.3172H213.483V80.1464H214.654ZM215.824 80.1464V81.3172H214.654V80.1464H215.824ZM215.824 81.3172V82.4879H214.654V81.3172H215.824ZM215.824 82.4879V83.6586H214.654V82.4879H215.824ZM214.654 82.4879V83.6586H213.483V82.4879H214.654ZM213.483 82.4879V83.6586H212.312V82.4879H213.483ZM212.312 82.4879V83.6586H211.141V82.4879H212.312ZM212.312 81.3172V82.4879H211.141V81.3172H212.312ZM211.141 81.3172V82.4879H209.971V81.3172H211.141ZM211.141 80.1464V81.3172H209.971V80.1464H211.141ZM211.141 82.4879V83.6586H209.971V82.4879H211.141Z" fill="white"/>
</svg>
